<?xml version="1.0" encoding="UTF-8"?>
<svg id="_レイヤー_2" data-name="レイヤー 2" xmlns="http://www.w3.org/2000/svg" viewBox="0 0 350.3853658 66.182655">
  <defs>
    <style>
      .cls-1 {
        fill: #1d2087;
      }

      .cls-1, .cls-2, .cls-3 {
        stroke-width: 0px;
      }

      .cls-2 {
        fill: #e50012;
      }
    </style>
  </defs>
  <g id="_レイヤー_1-2" data-name="レイヤー 1">
    <g>
      <path class="cls-3" d="m193.5689596,30.5601136c.2641602.2420349.3520508.4620667.3300781.638092-.0219727.1980286-.2636719.374054-.5717773.5720825-.3300781.1760254-.5722656.8141174-.8364258,1.4082031-.3740234.7701111-.9677734,1.7382507-1.8701172,2.9484253s-1.5180664,1.9582825-2.3544922,2.7283936c-.8359375.7701111-1.9360352,1.6062317-3.2124023,2.2443237-1.2758789.6600952-1.9799805,1.0341492-3.3881836,1.4962158-.2421875.0880127-.4624023.0220032-.484375-.132019-.0219727-.132019.1542969-.2200317.3300781-.2860413,1.0561523-.374054,1.6723633-.7041016,2.6625977-1.3201904.9682617-.6160889,1.9799805-1.4742126,2.684082-2.1123047.9243164-.8141174,1.7822266-1.8262634,2.4204102-2.7723999s1.078125-1.7162476,1.4741211-2.6183777c.418457-.9461365.5283203-1.5402222.5722656-1.7602539.065918-.2640381,0-.506073-.0439453-.5720825-.0878906-.0220032-.3740234-.0440063-.5283203-.0440063-.3300781,0-1.3637695,0-1.8481445.0220032h-1.078125c-.2202148.4180603-.4619141.8581238-.7041016,1.2541809-.7041016,1.1001587-1.3862305,1.8482666-2.2880859,2.5963745-.9023438.7701111-1.628418,1.2101746-2.6845703,1.6282349-.1982422.0660095-.4179688.0660095-.4838867-.0660095-.0664062-.1540222.1538086-.2860413.3076172-.374054.8803711-.4840698,1.5844727-.9901428,2.2446289-1.6722412.7041016-.6600952,1.4301758-1.6062317,1.8701172-2.3543396.4399414-.7261047.7480469-1.4082031.9462891-2.0022888.1977539-.5500793.1977539-.9241333.1757812-1.1661682-.0219727-.2200317-.2416992-.4620667-.4399414-.638092-.1538086-.1980286-.3300781-.4620667-.1757812-.638092.1757812-.1980286.5717773-.0880127.9677734.0660095.3964844.132019.8144531.3520508,1.0561523.5940857.2421875.2640381.1762695.6600952,0,1.1661682-.065918.1760254-.1977539.4400635-.3520508.8141174.1542969,0,.3740234.0440063.5722656.0660095.4399414.0440063.9902344.0440063,1.4960938,0,.5283203-.0440063.8583984-.2200317,1.1884766-.4180603.3300781-.1760254.6376953-.1760254,1.078125.0220032.4399414.1980286.7041016.4180603.9677734.6820984Zm-.7700195-1.4742126c-.3081055-.3300476-.7260742-.638092-1.2758789-1.012146-.1982422-.1100159-.2861328-.2640381-.1982422-.4400635.0878906-.0880127.2641602-.0660095.3959961-.0660095.3300781,0,.7260742.1100159,1.1884766.2640381.4399414.1760254,1.1220703.5280762,1.3198242.880127.2202148.374054,0,.7261047-.3300781.8141174-.3076172.0880127-.7700195-.1100159-1.1000977-.4400635Zm1.7382812-.880127c-.3300781-.4180603-.7041016-.638092-1.3642578-.9241333-.1757812-.0660095-.2856445-.2860413-.1977539-.4180603.0878906-.1100159.2636719-.0880127.3740234-.0880127.3520508-.0220032.7480469.0660095,1.2099609.1980286.4624023.132019,1.1220703.4400635,1.3422852.8361206.2202148.3520508.0439453.7041016-.2421875.8141174-.3300781.1100159-.8359375-.0880127-1.1220703-.4180603Z"/>
      <path class="cls-3" d="m204.083608,42.5518433c-.2861328.0880127-.484375.0220032-.5283203-.0880127-.0219727-.0880127.0664062-.1980286.3740234-.3080444.2861328-.0880127.7041016-.2640381,1.2763672-.5500793.8359375-.3960571,1.8261719-.9901428,2.8164062-1.7382507,1.1000977-.8361206,2.0463867-1.7382507,2.9921875-3.0584412.9462891-1.2981873,1.4306641-2.4863586,1.9145508-3.9605713.1977539-.6600952.065918-.9681396-.5722656-.9241333-.5717773.0220032-1.4082031.0880127-2.2001953.1980286-.7919922.0880127-2.15625.3520508-3.168457.4620667-.9682617.132019-1.8481445-.0880127-2.3764648-.4840698-.4838867-.3960571-.7260742-.9461365-.4619141-1.2101746.2421875-.2420349.6162109,0,.9462891.1100159.3520508.132019.6601562.2420349,1.3422852.3300476.7041016.0880127,1.6938477.0220032,2.5302734-.0660095.8359375-.0880127,2.5083008-.1980286,3.1245117-.2640381.59375-.0880127.8798828-.2200317,1.1000977-.3960571.1977539-.1540222.5058594-.2200317.7041016-.0880127.1977539.132019.5717773.4400635.9677734.7701111.3964844.3300476.5942383.7261047.550293.9021301-.0439453.1540222-.2421875.2420349-.527832.2860413-.3081055.0440063-.418457.4400635-.7041016,1.1001587-.5722656,1.3421936-1.2543945,2.5963745-2.1567383,3.7185364-.8798828,1.0781555-2.2880859,2.3323364-3.762207,3.3664856-1.4746094,1.0341492-2.7944336,1.518219-4.1806641,1.8922729Zm9.5493164-13.7299805c-.1762695.2200317-.7041016.1760254-1.3862305.0220032-.7041016-.1540222-1.4521484-.0880127-2.0683594-.0220032-.6162109.0440063-1.5839844.2200317-2.5302734.3300476-.9023438.1100159-1.5180664.0440063-1.9804688-.2640381-.4619141-.3080444-.7041016-.880127-.4619141-1.0561523.1982422-.1980286.5058594,0,.8359375.1100159.550293.1540222,1.628418.2200317,2.5966797.0880127.9677734-.1100159,1.8920898-.2860413,2.5083008-.3960571.7041016-.132019,1.1660156-.1540222,1.7822266.1540222.527832.2640381.8798828.7701111.7041016,1.0341492Z"/>
      <path class="cls-3" d="m224.7413229,30.9121644c-.5058594-.2640381-.7700195-.3960571-.7041016-.6160889.1098633-.2200317.4399414-.1760254.9023438-.1100159.4838867.0440063.9897461.1760254,1.605957.4180603.6162109.2640381.9682617.4620667,1.5180664.9681396.5283203.4620667.8583984,1.2981873.3081055,1.6282349-.4399414.2640381-1.078125-.0440063-1.6499023-.6820984-.7485352-.8581238-1.2983398-1.2761841-1.9804688-1.6062317Zm14.1040039-.3080444c-.2641602.4400635-.6821289,1.1001587-1.5400391,2.3103333-.7705078,1.1001587-1.5844727,2.156311-2.7724609,3.2784729-1.1884766,1.144165-2.3984375,2.0462952-3.71875,2.9264221-1.2978516.8581238-2.5083008,1.3862-3.4101562,1.6062317-.9243164.2420349-1.3203125.0660095-1.7163086-.374054s-.484375-1.2321777-.2641602-1.4302063l.7260742.1760254c.2202148.132019.5942383.1540222,1.0341797.132019.7480469-.0440063,2.1782227-.5280762,3.1904297-1.2101746,1.0341797-.6820984,2.4204102-1.7382507,3.4326172-2.662384,1.012207-.9021301,1.7163086-1.518219,2.7944336-2.8164062,1.1000977-1.3201904,1.6279297-2.0022888,1.7602539-2.2003174.1538086-.1980286.3300781-.3080444.4619141-.2420349s.1762695.2200317.0219727.506073Z"/>
      <path class="cls-3" d="m245.7510885,33.5965516c.0219727-.3080444.7919922-.2200317,1.3862305-.1980286.5942383.0440063,1.2324219.1100159,1.8481445.374054.550293.2640381.7924805.4180603,1.1445312.7921143.3520508.3520508.5058594.9901428.065918,1.3201904-.3959961.2860413-.9243164.0660095-1.2543945-.3300476-.3520508-.4180603-.7041016-.7261047-1.1660156-1.0341492-.3081055-.2200317-.7919922-.506073-1.4741211-.638092-.4179688-.0880127-.5722656-.1100159-.550293-.2860413Zm6.1171875-2.3763428c.3740234.3960571.4838867.9021301.1757812,1.2541809-.2861328.3080444-.7041016.3080444-1.1660156.0440063-.4624023-.2860413-.8144531-.638092-1.1884766-1.0561523-.5498047-.638092-1.1220703-.9901428-2.0019531-1.1661682-.3300781-.0660095-.484375-.1540222-.484375-.2860413,0-.1980286.3300781-.2420349.5942383-.2420349.2202148,0,.5058594,0,.9902344.0660095.6162109.1100159,1.012207.2200317,1.605957.4400635.5942383.2420349,1.0341797.4840698,1.4746094.9461365Zm8.8671875.2200317c-.4399414.6820984-1.3203125,1.9362793-2.2226562,2.9044189-.8798828.9681396-1.3417969,1.4302063-2.7060547,2.7283936-1.3422852,1.2761841-2.9267578,2.3983459-4.2246094,3.168457-.9682617.5500793-1.628418.9021301-2.3764648.9021301-.7260742,0-1.1220703-.4840698-1.3642578-.9461365-.2197266-.4620667-.2861328-.9901428-.0219727-1.1221619.1982422-.1540222.4179688-.0440063.7041016.1760254.2641602.1980286.5722656.3300476,1.0341797.3520508.5722656.0220032,1.4082031-.4180603,2.8603516-1.2761841.8583984-.506073,1.6723633-1.1001587,2.7944336-1.9802856,1.1000977-.8361206,2.1123047-1.7382507,2.8823242-2.5963745.7924805-.9021301,1.7163086-2.1343079,2.0683594-2.6403809.3081055-.4400635.7480469-1.0341492.9462891-.9021301.2197266.1100159.1098633.506073-.3740234,1.2321777Z"/>
      <path class="cls-3" d="m269.0274557,28.9978882c-.2861328-.3300476-.3740234-.7481079-.1982422-.9461365.3081055-.3300476.7480469-.0220032.9682617.132019.3081055.1980286.7700195.4620667,1.1879883.5280762.418457.0660095.8364258,0,1.4301758-.0660095,1.2763672-.1100159,2.1347656-.2200317,3.1464844-.3080444.5942383-.0440063,1.9365234-.1760254,2.8828125-.2640381.9458008-.0660095,1.8701172-.1760254,2.2880859-.2420349.4399414-.0440063.8583984.1100159,1.078125.2640381.2202148.1540222.4399414.3300476.4399414.5280762,0,.1760254-.0219727.3080444-.4838867.6600952s-1.4301758,1.0561523-2.4204102,1.6282349c-.8798828.5280762-2.0024414.8581238-3.0805664,1.1001587,0,.7041016-.0219727,1.5402222-.1098633,2.3543396-.1757812,1.2541809-.4619141,2.3763428-1.012207,3.542511-.5717773,1.1661682-.9682617,1.7602539-1.605957,2.3983459-.6381836.6160889-1.5625,1.2101746-2.7285156,1.9142761-.3740234.1980286-.5283203-.132019-.3081055-.2640381s.550293-.4180603,1.012207-.7481079c.7700195-.5720825,1.4301758-1.1881714,2.1342773-2.2003174s.9902344-2.0903015,1.1879883-3.3444824c.2202148-1.2761841.1762695-2.3103333.065918-3.3664856-.1098633-1.0341492-.4179688-1.7162476-.9458008-2.2883301-.1982422-.2200317-.3081055-.4180603-.3081055-.5940857-.1982422.0220032-.4179688.0440063-.5722656.0880127-.8359375.1100159-1.6279297.1980286-2.4863281.1760254-.8798828-.0220032-1.2319336-.3080444-1.5620117-.6820984Zm5.7426758.2860413c.4179688.1540222.6601562.3520508.9902344.6160889.3740234.3080444.4179688.7701111.4619141,1.1881714,0,.132019.0219727.3080444.0219727.4840698.4404297-.1760254.8803711-.4400635,1.3862305-.7701111.6601562-.3960571,1.012207-.7481079,1.3422852-1.1221619.2861177-.3080444.4619141-.5720825.3740234-.6820984-.065918-.132019-.2421875-.1980286-.6381836-.1760254-.3740234.0440063-1.6499023.2200317-2.5742188.3080444-.4179688.0440063-.9023438.0880127-1.3642578.1540222Z"/>
      <path class="cls-3" d="m297.958608,31.1541993h4.4663086l.7919922-.880127c.7705078.5940857,1.1445312.9681396,1.1445312,1.1661682,0,.1100159-.065918.1980286-.1982422.3080444l-.4399414.3080444v6.1828918h-1.1000977v-1.0341492h-4.4448242l.1318359.1100159c2.1567383,1.8042603,4.8847656,3.3224792,8.2514648,4.3786316-.4399414.374054-.7700195.7481079-.9682617,1.1661682-3.234375-1.3421936-5.7646484-3.036438-7.6347656-5.1267395v6.2709045h-1.1884766v-5.5888062c-2.0463867,2.0903015-4.7524414,3.7185364-8.0751953,4.9287109l-.3081055-.4180603c3.4326172-1.4522095,6.0512695-3.3664856,7.8774414-5.7208252h-4.0268555v1.1221619h-1.1220703v-7.7451172c.4179688.1100159.9023438.3080444,1.4082031.5720825h4.246582v-2.0903015h-7.5688477l-.2861328-.4840698h7.8549805v-2.3763428c1.3642578.0440063,2.0244141.2420349,2.0244141.5280762,0,.1760254-.2641602.3520508-.8359375.5500793v1.2981873h5.6103516l1.0561523-1.3421936c.550293.506073,1.0341797.9901428,1.4301758,1.4522095l-.2197266.374054h-7.8769531v2.0903015Zm-1.1884766.4840698h-4.5327148v2.2003174h4.5327148v-2.2003174Zm0,2.7063904h-4.5327148v2.3763428h4.5327148v-2.3763428Zm1.1884766-2.7063904v2.2003174h4.6645508v-2.2003174h-4.6645508Zm0,2.7063904v2.3763428h4.6645508v-2.3763428h-4.6645508Z"/>
      <path class="cls-3" d="m316.8780416,31.4842469l.7260742-.9461365c.7700195.638092,1.1660156,1.0561523,1.1660156,1.2541809,0,.0660095-.065918.1540222-.1757812.2200317l-.418457.2860413v5.7208252h-1.144043v-1.3201904h-3.9384766c-.1318359,3.1464539-.9023438,5.5227966-2.3325195,7.1510315l-.4179688-.3080444c1.1000977-1.8042603,1.628418-4.3126221,1.628418-7.591095v-5.1487427c.4838867.2200317.9238281.4400635,1.2978516.6820984h3.6088867Zm.2416992-3.3004761l.9682617-1.2981873c.3740234.3520508.7919922.8141174,1.2763672,1.4082031l-.1982422.374054h-7.9428711l-.1762695-.4840698h6.0727539Zm-4.0043945,3.8065491v4.2026062h3.9165039v-4.2026062h-3.9165039Zm8.2290039,1.9582825c-.1098633,4.5106506-1.4521484,7.8771362-4.0703125,10.0774536l-.3740234-.374054c2.1782227-2.4203491,3.2563477-5.7208252,3.2563477-9.9014282v-5.6548157c.550293.2420349.9462891.4400635,1.1879883.5720825,1.9145346-.5720825,3.4545898-1.2541809,4.6210938-2.0682983.9018555.5720825,1.3198242.9681396,1.3198242,1.2101746,0,.132019-.1318359.1980286-.3959961.1980286-.1098633,0-.3081055-.0220032-.5717773-.0660095-1.6064453.5720825-3.2568359.9241333-4.8847656,1.2541809l-.0883789.0220032v4.2246094h4.9731445l.9677734-1.2981873c.3959961.374054.8144531.8361206,1.2324219,1.4302063l-.2202148.374054h-2.7944336v9.879425h-1.1660156v-9.879425h-2.9926758Z"/>
      <path class="cls-3" d="m332.9590963,30.8241517c1.8481445.5500793,2.7504883,1.2761841,2.7504883,2.2003174,0,.506073-.2202148.7481079-.6381836.7481079-.3300781,0-.5722656-.1980286-.7041016-.638092-.1982422-.6820984-.7260742-1.3421936-1.6064453-1.9362793l.1982422-.374054Zm5.9189453-.5720825l-2.9707031,8.4712219c-.1977539.5500793-.2856445.9901428-.2856445,1.3862,0,.1980286.0439453.4400635.1098633.7921143.1538086.7261047.2197266,1.2981873.2197266,1.7602539,0,.8581238-.3076172,1.3201904-.9018555,1.3201904-.4399414,0-.6821289-.2200317-.6821289-.6820984,0-.0880127.065918-.374054.1318359-.8141174.1103516-.638092.1542969-1.1661682.1542969-1.5622253,0-1.1661682-.5722656-1.8262634-1.7382812-2.0022888v-.506073c.3300781.0440063.5717773.0660095.7260742.0660095.6601562,0,1.144043-.3300476,1.4741211-.9681396,1.2104492-2.2883301,2.2885742-4.8186951,3.2783203-7.591095l.484375.3300476Zm-4.4667969-3.6965332c1.9365234.4840698,2.9042969,1.1881714,2.9042969,2.0903015,0,.5280762-.2416992.7701111-.7041016.7701111-.2856445,0-.5058594-.2200317-.6381836-.6160889-.2416992-.7041016-.8139648-1.3201904-1.7597656-1.8482666l.1977539-.3960571Zm12.7836914,1.4962158l.8144531-1.012146c.8359375.7481079,1.2539062,1.1881714,1.2539062,1.3862,0,.0660095-.0439453.132019-.1318359.1980286l-.5942383.3520508v6.6229553h-1.1660156v-1.2321777h-2.9707031c.4624023,2.0022888,1.1665039,3.6305237,2.0683594,4.8406982.9023438,1.2101746,2.2006836,2.2883301,3.9165039,3.2564697-.3740234.2860413-.7041016.6600952-.9897461,1.1661682-2.3105469-1.5622253-3.8945312-3.542511-4.796875-5.9408569-.3081055-.8361206-.6162109-1.9362793-.8579102-3.3224792h-2.6186523c-.0439453,1.8262634-.2421875,3.3664856-.6162109,4.6426697-.6157227,2.024292-1.7382812,3.67453-3.3442383,4.9727173l-.3520508-.3960571c2.0683594-2.2663269,3.1245117-5.3687744,3.1245117-9.3953552v-6.8209839c.0439453.0440063.2197266.0880127.4838867.2420349.4179688.1760254.6821289.374054.8583984.4400635h5.918457Zm-6.0727539.506073v5.3027649h6.2490234v-5.3027649h-6.2490234Z"/>
    </g>
    <g>
      <g>
        <path class="cls-1" d="m19.8672142,32.5809121h3.2188664c1.0530434,0,2.3859282.1808937,2.3859282,1.4051605v11.0233549s-3.6146576,1.309603-10.1625196,1.309603c-6.5403567,0-15.3094893-3.5472627-15.3094893-13.3784754,0-9.7989147,9.1287756-13.6431531,15.8875526-13.6431531,3.028323,0,6.8306137.180281,6.8306137,1.8585641v3.2831977c-2.570498-2.0649048-3.6063864-2.4314197-7.5080844-2.4314197-3.9003195,0-10.8782827,2.5286826-10.8782827,10.7024228,0,8.1835843,9.3658827,13.044126,17.1403296,9.9687799v-6.2666623c0-1.3132586-.0762786-3.8313724-1.6049147-3.8313724Z"/>
        <path class="cls-1" d="m68.8105261,45.6631569h8.2733168c-2.2915755-.839984-3.2302009-3.5435866-3.9804273-5.5142711-.7762653-1.9633323-6.7587769-16.2631249-7.4302739-18.2457567-.6604688-1.9542953-1.6162492-1.9542953-2.3724492-1.9542953h-4.7573052c2.292954.7493074,1.0432447,2.3445723.6670551,3.4552076-.3798615,1.1323854-8.3742602,20.5785349-8.3742602,20.5785349-2.7634921-.742721-9.6875356-10.7623534-9.6875356-10.7623534,9.2335399-2.6176744,7.7998692-13.2713891-1.2167821-13.2713891h-10.3636317c2.0821922.452464,1.89364,2.6198187,1.89364,4.2899837v17.6944981c0,2.4321855-.7635522,3.0761119-1.9826318,3.7298413h7.5858947c-2.0821922-.9289757-1.5309336-3.0843831-1.5309336-4.0992872v-19.0871192h4.0992873c2.1800678,0,3.7947854,2.6221162,3.7947854,4.4065461,0,2.8802076-2.2796283,4.0102748-4.561401,4.8560998-2.2751864.8309469-1.0410961,2.7045217,0,4.2121734,1.0649906,1.4906499,4.0969897,5.6960634,5.9001063,7.7528498,1.8129156,2.0498733,3.4029728,1.9587372,4.2824746,1.9587372h6.8456242c-2.6542779-.839984-1.2415956-2.891389-.8713797-3.9115008.3800105-1.0516648,2.1045551-5.4358686,2.1045551-5.4358686h10.250741s1.239298,3.1733954,2.3784229,5.9854423c1.1441795,2.8166421.2878063,3.1808802-.9468921,3.3619271Zm-10.6463876-12.3366135l3.9137984-10.0174674,4.161321,10.0174674h-8.0751193Z"/>
        <path class="cls-1" d="m152.0292894,45.6631569h8.2860278c-2.2832976-.839984-3.2354087-3.5435866-3.9795083-5.5142711-.762167-1.9633323-6.7566325-16.2631249-7.4184798-18.2457567-.6708843-1.9542953-1.6162492-1.9542953-2.3798014-1.9542953h-4.7476492c2.2855956.7493074,1.0426215,2.3445723.6693527,3.4552076-.3919682,1.1323854-8.3675271,20.5785349-8.3675271,20.5785349-.5354821,1.2131059-1.3163425,1.2422082-1.7911693,1.6805806h6.8260185c-2.6617873-.839984-1.2265849-2.891389-.8592834-3.9115008.3663825-1.0516648,2.0881658-5.4358686,2.0881658-5.4358686h10.2783158s1.2400639,3.1733954,2.3730619,5.9854423c1.1241142,2.8166421.2737147,3.1808802-.977524,3.3619271Zm-10.6208041-12.3366135l3.8830049-10.0174674,4.1957842,10.0174674h-8.0787891Z"/>
        <path class="cls-1" d="m122.7886814,46.149931c.9528702-.8585175,1.8121536-1.5076517,1.8121536-4.5022976v-17.6765568c0-1.402424-.0732094-2.9909495-1.8121536-3.5697787h7.3323983c-.7560468.6641449-1.6588305,1.5018313-1.6588305,3.3767845v17.8695509c0,1.5922219-.3469299,3.9354157,1.7747801,4.5022976h-7.4483479Z"/>
        <path class="cls-1" d="m83.436413,25.9342557s-.0934337,14.1202775-.0934337,15.7133777c0,1.5922219.2093833,3.9354157,2.2931072,4.5022976h-6.9488608c.958078-.8585175,1.7202516-1.5076517,1.7202516-4.5022976,0-2.9848023.1779835-16.2848547.1779835-17.6765568,0-1.402424-.1779835-2.9909495-1.8982351-3.5697787h5.3318457l15.9578573,19.747588v-16.091881c0-1.0276171.1997389-2.9915621-1.9847761-3.7402568h7.1266911c-.8586653.663379-2.1105286.9311201-2.1105286,3.6543285v23.2110667s-1.9685401.3604089-5.2070122-3.4777235c-3.2375531-3.8292486-14.3648899-17.770164-14.3648899-17.770164Z"/>
        <path class="cls-2" d="m128.8542111,66.0508421c-20.9046337-17.3356209-28.8929057-37.7450562-.3066462-65.6072813.8891575-.8563946,1.7462905-.3448069,1.0410961.4539957-12.5415549,14.0874991-26.4980936,36.6500442-.2917887,64.2864969.4129462.4420485.2482885,1.3342634-.4426611.8667887Z"/>
      </g>
      <path class="cls-1" d="m166.0404307,45.8863394c-1.9373563,0-3.5135142-1.5761579-3.5135142-3.5135142s1.5761579-3.5135142,3.5135142-3.5135142,3.5135142,1.5761579,3.5135142,3.5135142-1.5761579,3.5135142-3.5135142,3.5135142Zm0-6.5808678c-1.6914015,0-3.0673536,1.3759521-3.0673536,3.0673536s1.3759521,3.0673536,3.0673536,3.0673536,3.0673536-1.3759521,3.0673536-3.0673536-1.3759521-3.0673536-3.0673536-3.0673536Z"/>
      <path class="cls-1" d="m166.8878743,44.2790287c-.0775552-.0723268-.1241755-.1291861-.1241755-.4032437v-.4550925c0-.2688291-.0825658-.620442-.4860274-.620442h-.9668264v1.4787782h-.6979972v-3.7745007h1.7785423c.7032257,0,1.1635466.4343965,1.1635466,1.0236857,0,.2483511-.0827837.4757884-.2326657.6463664-.1448715.1655674-.269047.2326657-.589507.3049926.3670803.0518487.7239216.1603389.7239216.8687931v.3825478c0,.3775372.139643.4757884.2429048.5481152h-.8117159Zm-.589507-3.1849936h-.9875223v1.1167084h.8738037c.3877762,0,.6256704-.2015129.6256704-.5892892,0-.3413738-.2017308-.5274193-.5119518-.5274193Z"/>
    </g>
  </g>
</svg>