<?xml version="1.0" encoding="UTF-8"?>
<svg id="_レイヤー_2" data-name="レイヤー 2" xmlns="http://www.w3.org/2000/svg" viewBox="0 0 103.0503882 29.9861321">
  <defs>
    <style>
      .cls-1 {
        fill: #727171;
        stroke-width: 0px;
      }
    </style>
  </defs>
  <g id="_レイヤー_1-2" data-name="レイヤー 1">
    <g>
      <g>
        <path class="cls-1" d="m74.0570656,9.6707624c.2195675-.805666.6134117-1.5276199,1.0667781-2.2209867.349244-.0565044.3772969.2343429.3538108.4202294-.1340664,1.0611778.2213906,2.1220502-.01355,3.1789325-.0387147.174167.0373783.3132434.1032846.4591316.0402193.1440075.0217101.2871831-.0110896.428866-.4558652,1.9693618-.4716927,3.9422195-.0504504,5.9191042.0234241.1099155.0345137.222259.0319383.3354639-.1617269,1.2442734-.0436149,2.495462-.0959446,3.7422003-.010057.2395595.0456151.5388943-.3230674.5938469-.4100111-.600855-.7509357-1.2363677-.9697243-1.9331464.1521301-.2471849.0233858-.5075673.0067971-.7519024-.0433553-.638575.0149985-1.2759802-.031661-1.9149225-.0511172-.7000578.0533799-1.4024063.0652041-2.1048124.0026728-.158869.035561-.3192425.0185977-.4790717-.1765514-1.6632608-.0729895-3.3273077-.0228312-4.9915568.0069564-.2308912.0813296-.4862318-.1280923-.6813759Z"/>
        <path class="cls-1" d="m101.3062143,21.9484013c-.2236678.5239193-.5100711,1.0103288-.8689684,1.4533954-.2323471-.173709-.2849449-.4481769-.260934-.6878375.0750104-.7486985.0062314-1.4928309.0059574-2.2388226-.0000841-.2288157-.0948508-.381721-.1920636-.5553791-.0094456-.1841371.0757217-.3433586.1331319-.509153,1.0308745-2.9770296,1.0449865-5.9487651-.043713-8.9152891-.0553034-.1506911-.1168567-.3005267-.0853351-.4670012.2952243-.5802282.1882384-1.2063506.1686413-1.8116006-.0146331-.4519288.0160381-.8937091.0683877-1.3378701.0153467-.1302082.062154-.250076.2046537-.2985353.3943642.530347.7418773,1.0875433.978834,1.7080943.1964265.4656323.1054964.9726583.0564613,1.424298-.0841481.7750419.0227323,1.5366562.0113916,2.3024582-.0175412,1.1844826-.0255442,2.3690625-.0562854,3.5543047-.0436784,1.6840225.0926161,3.3676526.0712132,5.0526738-.0057152.4499544-.0667138.8929605-.1913726,1.3262642Z"/>
        <path class="cls-1" d="m101.3062143,21.9484013c-.0299499-.8504612.1156519-1.6946431.0686524-2.5480058-.0591091-1.0732409-.0918299-2.1488966-.0983969-3.223738-.0044274-.7245706.0682173-1.4492799.0834729-2.1744096.0112179-.5332042-.0601435-1.0711758-.013789-1.5999297.0773336-.8821268-.0865937-1.7570094.004503-2.6469851.0482828-.4717022.0576244-.9763799.0641089-1.466736.5060482.8490481.8526681,1.7600363,1.0563011,2.7264166-.0303168,1.3100324.0084356,2.6219161-.0214774,3.929435-.0245762,1.0742293.044649,2.1467695-.0123368,3.2180516-.0145796.2740918.1516802.5330006.0352192.805464-.2085214,1.0640055-.6402219,2.0406782-1.1662574,2.980437Z"/>
        <path class="cls-1" d="m74.0570656,9.6707624c.3441845-.0720532.2819483.2180521.2677846.3616038-.0499813.506669.0570115,1.0124588-.0606019,1.5249175-.0838284.365234.0135795.7674467.0035785,1.1464181-.0251559.9532197.0616315,1.9014344.0654047,2.8475766.0025224.6322174-.0193972,1.2860181-.0704996,1.9295494-.070594.8889815.0195831,1.7913301.0533298,2.6874863.0066968.1779137-.0461285.3095748-.1670136.4260913-.3025875-.8854147-.6629093-1.7492815-.8322181-2.680254-.4503514-2.4763273-.3471346-4.9176288.3799167-7.3301382.0948855-.3148497.3540763-.5640422.3603188-.9132509Z"/>
        <path class="cls-1" d="m75.1187754,22.5275505c.3966971-.3658639.1945915-.8601451.1944765-1.2667662-.000298-1.0353624-.0289498-2.0684104.0936346-3.0993653.0930358.0010857.1531331.0578408.1761295.136343.2702303.9225159.673872,1.7957509.9946973,2.6999419-.0929738.8965044.013966,1.7958032-.0360626,2.6931971-.0147065.2637397-.0314338.4991107-.3985498.3967697-.4047067-.4785016-.7845585-.9733235-1.0243256-1.5601203Z"/>
        <path class="cls-1" d="m102.4724717,18.9679643c-.2147971-.7323074-.0963742-1.4812596-.1382519-2.2207462-.0247484-.4370113-.1184922-.9259853-.0636195-1.3249661.1437561-1.0452513-.0408982-2.0834503.0693767-3.1232114.045163-.4258317-.1339281-.8751364.1310613-1.2839575.5361467,1.6568914.6615787,3.360525.5325918,5.083705-.0727583.9720078-.1781592,1.9455216-.5311584,2.8691762Z"/>
        <path class="cls-1" d="m75.4966682,11.5091859c-.1795428-.0786896-.2301703-.2390498-.1890099-.4009958.2192695-.8627059.0255778-1.7224424-.0155178-2.5813027-.0137536-.2874191.1751973-.5569367.0370391-.8482265-.0485889-.1024442-.0600915-.2202293-.2053389-.2288851.2336426-.5957284.6451317-1.0701079,1.0546943-1.5458061.3366351.015624.3027438.2845634.3128982.4931455.0288318.5923622-.0539345,1.1849428.0023277,1.7793229.0241263.254873.0350094.5113376.0721989.7651323-.2219571.8496853-.6295815,1.6305037-.9214363,2.4548059-.0214682.0606464-.0862327.0910463-.1478553.1128096Z"/>
        <path class="cls-1" d="m76.4751663,9.0237101c-.2147056-.8481808-.119236-1.7094499-.1114712-2.5673559.0018232-.2012185.0610444-.4305372-.1851658-.5523876.3143054-.5703039.7657601-1.0238199,1.2408721-1.4571863.270127.0111988.2801428.216456.2877187.4057323.0211201.5274588.0498279,1.0558675-.0271354,1.5816564-.0329974.2254334-.0080745.4473472.0271679.6692611.0119363.1325624-.0234507.2540499-.1000276.3607778-.2978023.4150725-.5733724.8436419-.8194705,1.2918609-.066983.1219964-.1438992.2541753-.3124882.2676413Z"/>
        <path class="cls-1" d="m76.1431009,24.0876708c.1505341-.0211917.3470196-.0849528.2922856-.2421106-.1852927-.5320426.1012106-1.0462654.0191818-1.5611978-.0710424-.4459636-.157045-.8814549.0156859-1.3199907.0902774-.006064.1567825.0413583.1955179.1126562.3258199.5997015.8185677,1.1017859,1.0343177,1.7662803.0152463.6494758.0738923,1.3001442.0110512,1.9479451-.0259259.2672415.0889705.6186452-.3035581.7471777-.4827646-.4301817-.9120578-.906973-1.2644821-1.4507601Z"/>
        <path class="cls-1" d="m77.6334254,7.182872c-.2491102-.4731375.0178277-.9603709-.0395496-1.4373288-.0521586-.4335523.1364206-.9002997-.1744715-1.2987599.348651-.4760523.8480928-.7816945,1.2953819-1.146278.2960706.0318234.2988821.272096.2840311.466774-.0476242.6244364-.0024634,1.2478343-.0109657,1.8713295-.314568.6341512-.7597566,1.1548128-1.3544261,1.5442632Z"/>
        <path class="cls-1" d="m100.4359722,6.5803081c-.1367337.5332293-.2208342,1.072468-.1159805,1.6205425.0990928.5179593-.1619069,1.031834-.0014529,1.5543099.0253244.0824628-.0283745.3167113-.2586642.2070465-.4471774-.494653-.7605565-1.0615731-.924094-1.709652.1584847-.1875858.1720517-.4045286.1305173-.6344905-.1173914-.6499582.0419319-1.3054184-.0365044-1.9582441-.0174789-.1454811.0087966-.3237267.145524-.4415443.4265909.3971326.7486917.8756335,1.0606547,1.3620319Z"/>
        <path class="cls-1" d="m100.0551101,20.0163546c.2980199-.1197631.2814585.0861107.2740688.2703466-.0259528.6470272.0541905,1.2962884.0250445,1.9360582-.0185719.4076654-.0358339.7912103.0830193,1.1790285-.2744929.4573645-.5762429.8939473-.9640858,1.2649105-.2053492-.1365525-.1996193-.3474622-.2020996-.5589723-.006969-.5943189-.0099516-1.1887337-.0004846-1.7828875.003167-.1987831-.0079875-.3841416-.1281926-.5496572.1289921-.676902.4838974-1.2370632.9127301-1.7588267Z"/>
        <path class="cls-1" d="m99.1726699,21.7543517c.2408262.0510886.2492769.199469.2445264.4237799-.0175681.8294377-.1165226,1.6628979.055948,2.4885277-.3078579.4283121-.656163.8192574-1.0653156,1.1540296-.4144444-.4210222-.2089558-.9571087-.2357991-1.4382736-.0187437-.3359898.0017605-.6605928-.1793776-.9593213-.0346074-.1343192.0047608-.2622956.0905975-.3532925.3917504-.4153011.5544147-1.0200828,1.0894205-1.3154497Z"/>
        <path class="cls-1" d="m81.0876345,1.7393525c.4553887-.2947296.9408807-.5237917,1.4638691-.6710577.3135074-.0980013.313413.1586064.3144544.3229715.0034192.539578.0449956,1.0807462-.0222618,1.6193093-.3648399.5510895-.9501132.7236738-1.5378661.891703-.1887237-.1342086-.2666046-.3457467-.2290551-.5452246.1020278-.5420207-.0343161-1.0794864.0108595-1.6177015Z"/>
        <path class="cls-1" d="m99.3753175,5.2182762c.0025895.9313678-.0106426,1.8632402.0189104,2.7937525.0073739.2321833-.0006601.3034385-.2303849.2151521-.4666125-.1932413-.5752878-.6915082-.8712912-1.0304873-.1204212-.1379051-.2692825-.2910862-.181307-.514481.1296706-.2525217.1373182-.51395.1097867-.7947047-.060579-.6177631-.1064265-1.238736-.0012671-1.8580036.478877.3051821.8065238.7573705,1.1555531,1.1887721Z"/>
        <path class="cls-1" d="m97.9952945,23.390898c.4112479.1779307.3236154.550692.3044888.8656398-.0321271.5290172-.0277985,1.0494664.1080402,1.5641347-.3421968.3761651-.7300597.6987796-1.1514163.9821275-.2608857-.1179163-.2167825-.3646875-.2419384-.5798713-.0647903-.5542307.0920888-1.1206898-.0920961-1.6681617.1383183-.5892624.5705742-.9088921,1.0729218-1.1638691Z"/>
        <path class="cls-1" d="m77.407583,25.5384309c.3123849-.5462291.1858001-1.1567452.1950282-1.7309234.0053103-.3304524-.0149779-.6661147.0237811-.9995925.5861082.3566446,1.0030226.8558895,1.258688,1.4926797-.0753821.5897064-.0440634,1.1823636-.0625696,1.7733968-.0059475.1899496.0570764.4322962-.2231696.5120575-.3931894-.3538287-.8824059-.598416-1.1917581-1.0476181Z"/>
        <path class="cls-1" d="m96.1854716,27.5628419c-.4223073.3070229-.8450209.613325-1.3559609.7627903-.2375759-.5772773-.1029379-1.1744059-.087311-1.7639899.0041339-.1559409.0449705-.3121378.0420727-.4713283.29714-.3930555.6654139-.6745441,1.1694365-.7432259.15999.0352625.2708926.1548685.271237.295625.0015665.6400368.1708805,1.2847938-.0394744,1.9201288Z"/>
        <path class="cls-1" d="m78.8920367,5.7431978c-.0470607-.6424146-.0907376-1.2840386-.0171698-1.9285832.0209667-.1837004.0493205-.3919668-.1600866-.5141152.2847568-.356208.6976266-.5371353,1.065899-.7790807.3775211-.0330388.3209433.2912219.3567698.4842714.0935107.5038191.0106589,1.0215129.0721428,1.5302263-.2834735.5713099-.7039989.9946694-1.3175552,1.2072814Z"/>
        <path class="cls-1" d="m98.2197643,4.0295041c.1165978.2592599.0843557.5347338.0911735.8067502.0104059.4151964-.0197689.8283542.0779,1.2447336.0582108.2481584.0596364.5531458-.2669033.6900007-.4757219-.2312865-.8103265-.5936397-1.0077568-1.0841418.1014982-.6137007-.0466949-1.2287939.0105106-1.8447899.0208391-.2243949-.0250327-.4490878.2280993-.5698496.3349506.1998172.6149761.462514.8669767.7572967Z"/>
        <path class="cls-1" d="m82.5326949,28.9208417c-.457175-.1132636-.8696775-.3257756-1.2676417-.5705864.1079163-.7063645-.0788249-1.4256233.0927614-2.129267.0942896-.1023048.2077211-.083887.3071528-.0252792.3723245.2194615.7929148.3530336,1.1305529.6341689.2362667.6353918.0867269,1.2766923.0148894,1.9143944-.0133022.1180819-.1122559.2322586-.2777148.1765692Z"/>
        <path class="cls-1" d="m93.8626864,28.8037411c-.4290557.2235932-.8811093.3837293-1.3526088.4902108-.1833028-.3024815-.220923-.6386203-.1834134-.9765978.0383209-.3453038-.0121015-.6684085-.1396805-.9858256.3505406-.4136575.8823499-.4390481,1.3388891-.6260313.1789071-.0136054.3400816.0429514.361434.2317364.0641597.5672387.0250814,1.1405728.0777547,1.7095864.0056045.0605476-.0584431.1103433-.1023752.1569211Z"/>
        <path class="cls-1" d="m78.5993411,26.586049c.176159-.2780199.0688711-.5852206.081421-.8778085.0222883-.5194992-.0321035-1.043375.1084414-1.5545851.4933881.2312452.9423469.5107535,1.1480428,1.0559213-.0166329.6050147.188175,1.2138971-.0211319,1.8139342-.0513886.1473136-.029705.3775657-.2950734.3568592-.3569852-.2436565-.7642025-.4226979-1.0216999-.7943212Z"/>
        <path class="cls-1" d="m80.1396499,4.6576724c-.1945384-.4294457-.067638-.8833157-.0982723-1.3251402-.0204061-.2943196.0021477-.5969999-.2607131-.8111165.3926819-.3325418.8336518-.5843585,1.3069907-.7820515.1730702.0122904.1135806.1234494.1236583.2355701.0566487.630198-.0923071,1.2693085.0835687,1.8932344-.2498271.4610743-.6567877.6922192-1.1552323.7895036Z"/>
        <path class="cls-1" d="m85.1479597,29.6887926c-.3981131-.0327622-.7862489-.107707-1.153089-.2727027-.259598-.6668508-.1019688-1.3434869-.0478602-2.0177621.5408102-.220108.9824778.1007213,1.452775.267052.2266124.6157725.0641686,1.2552432.1015735,1.8828997.0135205.2268594-.1893063.2039883-.3533993.1405131Z"/>
        <path class="cls-1" d="m85.1479597,29.6887926c.1066226-.0292947.2983525.0406794.2592616-.1736463-.1074457-.5890949.0365552-1.1832907-.0495728-1.7715684.4567591-.2038747.8824472-.0260816,1.3116918.1055415.0425647.0270194.0791288.0617203.1099017.101602.1240447.2135.2151452.4313769.0844449.6786274-.1039734.1966896.0084772.3709591.0568449.5546813.1107735.4207667-.0734763.7128268-.431674.7019993-.4577297.007427-.9063935-.0467707-1.3408982-.1972369Z"/>
        <path class="cls-1" d="m85.2485743.2906537c.4730675-.1449236.957608-.2072427,1.4515861-.201605.0212307.0071453.04246.0142935.0638028.021309.1751914.1270073.2467825.3323471.1956329.5071587-.1460012.4989868-.1088898,1.030027-.291815,1.5199126-.5141438.1551134-1.0259496.324777-1.5760395.2276224.2270977-.6780407.2940379-1.3685075.1568326-2.0743977Z"/>
        <path class="cls-1" d="m84.0021899,27.3728215c-.0024339.6810676-.0048677,1.3621355-.0073105,2.043236-.4873314-.1652007-1.0177689-.2031601-1.4621491-.4952405.17551-.0738661.2163488-.2164387.2144976-.392059-.0057631-.5468236.1012209-1.0937339-.0017524-1.6405862.5012045-.0518579.9045807.149958,1.2567143.4846498Z"/>
        <path class="cls-1" d="m96.1854716,27.5628419c.0099051-.5753206-.1296507-1.1453989-.0324457-1.7277851.0252318-.1511705-.0337253-.3949458-.2940652-.4218387.2260017-.4922442.6482677-.7521207,1.123668-.949088.289081.3723343.1400957.8037632.1572316,1.2108378.0159566.3790334-.0529308.7649841.116516,1.1277761-.3134964.3146292-.6827482.5506828-1.0709047.7600979Z"/>
        <path class="cls-1" d="m92.4139708.677921c.4072011.0728601.7946657.2028293,1.1587622.400425.1590924.5750035.0972692,1.1620732.0852474,1.7450096-.002956.1432951-.0964653.2693081-.2416478.3344152-.4990715-.0218754-.956397-.1508799-1.3194079-.5194166.144712-.3082473.1785767-.6270236.129563-.9663597-.0501067-.3469268-.0180932-.6898207.1874832-.9940735Z"/>
        <path class="cls-1" d="m93.3560433,3.109515c.411467-.3218121.1870716-.7771306.1845522-1.1533436-.0019707-.2942045.041069-.5852612.0321389-.877849.3780079.1027688.7287196.2691046,1.0692953.4590534.1961455.7331821.2931396,1.4639835-.0515611,2.1842646-.5098572-.004378-.9300072-.1914977-1.2344253-.6121253Z"/>
        <path class="cls-1" d="m86.4888578,29.8860294c.4109389.0060021.3554408-.432342.3404334-.5532885-.0394626-.3180138-.2918121-.6055008-.0065375-.9432939.0417622-.0494528-.0715897-.2299062-.1131705-.3497453.4074533-.2331901.8374826-.1306418,1.26342-.085823.0577594.0286077.130982.0681446.128113.1297465-.0292979.6291618.1285525,1.2622919-.0383858,1.8882369-.5262836.0018132-1.0558523.0638691-1.5738726-.0858326Z"/>
        <path class="cls-1" d="m93.8626864,28.8037411c-.0192025-.6297297-.033136-1.2597053-.0625283-1.8889589-.00521-.1115816-.1303035-.1220975-.2270461-.1315918.2833171-.4975147.7916986-.5682897,1.2808487-.6755279.182847.3338568.0165687.7049108-.0091757,1.0172661-.033302.4040455.1074015.8072422-.0152736,1.2007147-.2910797.2224434-.6135002.381517-.966825.4780978Z"/>
        <path class="cls-1" d="m97.3527877,3.2722074c-.1355414.641211-.1709395,1.2884402-.0575352,1.9337991.0357956.2037084.0779716.3730386-.1239651.5019635-.468286-.1840486-.91283-.3928342-1.0077826-.9670618.1334144-.5062825.0467915-1.0231709.0776773-1.5340881.0131665-.2177984-.0277432-.4625081.2300678-.5867717.3135074.1908103.631713.375266.8815378.652159Z"/>
        <path class="cls-1" d="m94.4547125,3.6759778c.23628-.040308.1782359-.2277375.1798194-.3757823.0062853-.5875446.0055861-1.1751601.007486-1.7627873.3098463.1246914.6017388.2814421.8670135.4857022.1344447.100093.2117864.2318647.2207704.4008262.0268684.5053326.0079897,1.0113791.0223237,1.5170155.0047047.1659641-.0580456.3106959-.2351221.3720651-.4400627-.0680985-.8401466-.2042306-1.062291-.6370394Z"/>
        <path class="cls-1" d="m85.2485743.2906537c.2942784.0534893.1805149.2886523.2034567.4610802.0500654.3762956-.1121733.7440358-.017397,1.131657.0578656.2366617-.2054112.3242312-.3686619.4408716-.1653305.2661072-.4107855.2872569-.683811.2242769-.3002303-.3819245-.1263503-.827009-.1364943-1.2391696-.007101-.2884724-.036123-.5271637-.2485674-.7260693.39901-.1751627.8194011-.2588793,1.2514749-.2926468Z"/>
        <path class="cls-1" d="m82.7455685,3.09087c.0001003-.5522047.0018394-1.1044182-.000767-1.6566082-.0007198-.1523255.0412858-.3341556-.1932964-.3659642.3560987-.2193059.7614662-.2968538,1.1571794-.4021744.1135997.0788105.1867766.2046141.1750675.3246944-.05506.564734.1090432,1.1420357-.0962175,1.6974678-.2804997.3061556-.605852.4979955-1.0419659.4025845Z"/>
        <path class="cls-1" d="m92.1871327,27.3471212c.2735802.1568665.3523372.4138496.2684749.6865486-.1335383.434233.1202317.837867.054467,1.2602895-.3710028.1607298-.7547428.2732171-1.1595145.3060144-.1299126-.3952821.0726429-.7836339.0159249-1.1898378-.0406972-.2914786-.1014643-.5557427-.2314064-.8124403.3057544-.2728727.6653992-.3185588,1.052054-.2505743Z"/>
        <path class="cls-1" d="m92.4139708.677921c-.1122368.5452217-.0614854,1.0968068-.0404848,1.6440257.0089994.2344904-.0999892.2729722-.2695827.3020844-.3955023.1402535-.7308658-.0108094-1.0545808-.2171788.2207121-.2757542.2855725-.5741185.2479641-.9367696-.0365125-.3520748-.0786169-.7230218.0526896-1.0751468.3697283.0376912.725057.1295237,1.0639947.2829851Z"/>
        <path class="cls-1" d="m81.3953906,26.1932207c-.0332304.6386716.1336061,1.2773344-.0024014,1.9168667-.0206953.0973025-.0383135.1847367-.1279006.2401325-.3365377-.1175358-.6439929-.2881784-.9253984-.5064201.2037694-.503651.0339031-1.0334009.1047537-1.5483259.0306727-.2229287.036508-.4386147.1996658-.6123429.349657.023925.6164976.1698472.7512808.5100897Z"/>
        <path class="cls-1" d="m89.5129049.1000145c.29673-.0156299.58866.0082988.8716615.1057868.1800444.0917676.2234321.2583247.2323593.4385793.0188381.380358.0206038.7611201-.0011992,1.141366-.0139232.2428275-.1020647.4332396-.377558.46914-.2943433.0100305-.6033488.0952783-.8491312-.1576476-.0217986-.5338842.0010989-1.0685207-.0084699-1.6030274-.0025888-.1446315.0323808-.2815719.1323376-.3941972Z"/>
        <path class="cls-1" d="m90.1608894,2.1463297c.1410995-.0206836.3210922-.0112224.3111827-.2184238-.0274585-.5740978.1071315-1.1568189-.0875116-1.7221223.3331657.0050802.6542285.0718924.9654141.1891464.0318409.5267507.0655345,1.0533952.0947631,1.5802846.0153732.2771378-.1502361.3614327-.3943488.3539865-.3417964.1593705-.6424013.118378-.8894995-.1828714Z"/>
        <path class="cls-1" d="m95.4269268,4.2580646c.1064936-.0104318.2083466-.0729397.1962687-.1697845-.0855719-.686192.0950242-1.3867926-.1141676-2.0651313.3509012.1503253.6740291.3454517.9622265.5968907-.1971006.5440799-.0507499,1.1077283-.0939304,1.6606381-.0156697.2006491.0548129.4260589-.1766318.5573734-.3434425-.0792324-.7055447-.1335743-.7737654-.5799863Z"/>
        <path class="cls-1" d="m88.0561973,28.0506587c-.4488733-.0036508-.8977452-.0073013-1.346617-.0109547-.0001814-.0302753-.0003275-.0605483-.0004366-.0908214.0640049-.0787405.1525269-.1266709.2476764-.1291505.8883755-.0231532,1.7780152-.1025799,2.6639642.0442642.0711427.0382654.1456619.0874954.1576528.1666161.0939223.619795.2005434,1.2414763-.0722313,1.8473421-.3454029.1289429-.704226.0940212-1.0607731.0868796.0602449-.3918688.1713754-.7715003.163674-1.1794315-.0074417-.394324-.0675937-.6677934-.5420109-.6347195-.0784089.0054659-.1555198-.0349797-.2108985-.1000244Z"/>
        <path class="cls-1" d="m91.1451992,27.6486303c.2271419.0054925.328534.1632912.3197367.3484354-.0254081.53477.107105,1.0823355-.1143683,1.6028673-.2784936.1156668-.5680238.17637-.8700404.1749731-.1027299-.396492-.0237782-.7991539-.034881-1.1985998-.0073311-.2637109-.0369137-.5114715-.1817791-.736889.2379911-.3209407.5399797-.3469957.8813321-.1907871Z"/>
        <path class="cls-1" d="m80.6270963,25.6960733c-.1018567.6447696-.101131,1.2960723-.0843948,1.9443518.0052749.2043331-.0598614.2105096-.203026.203378-.2667462-.1122727-.5066136-.2662378-.7185991-.4634606.3729809-.5475261.247349-1.1602695.1963823-1.7507577-.0158511-.183668.0168778-.3428681.0364815-.5128806.3749693.0366542.6320508.2306279.7731562.579369Z"/>
        <path class="cls-1" d="m90.2603432,27.8341569c.1426483.0181689.3192868.011929.3088757.2192447-.0288229.5738574.1072997,1.1565578-.0886946,1.7215157-.2466896.1201172-.5113117.1054991-.7743185.1030335-.0000103-.5044608.0027628-1.0089496-.0017244-1.5133743-.0013482-.1515028.0460296-.3218084-.1171532-.431673.1827939-.3160656.4240036-.2339899.673015-.0987466Z"/>
        <path class="cls-1" d="m88.0561973,28.0506587c1.0949727-.0281633.8517819-.0644945.8743269.8456138.0094228.3804498.0589129.7791312-.2851005,1.0685749-.1942257.0023314-.3884588.004676-.5826934.0070177-.0741106-.6401596-.1586293-1.2802805-.0065331-1.9212064Z"/>
        <path class="cls-1" d="m89.5129049.1000145c-.0000546.5505644-.0001387,1.1011258-.0001401,1.6516902,0,.1121414-.0004278.2239937-.1140954.2916025-.7223709.2401576-1.4485755.1975603-2.1764809.0297907-.0958236-.1849189.0656746-.2057617.1680491-.2371485.1939985-.059484.3973904-.0434853.5970974-.0339593.1264579-.001599.2539853-.0016373.3814507-.0000826.2460243.0029974.3460652-.1249067.3285959-.3602261-.0234861-.3163395-.1012681-.6286816-.0433406-.9508448.0282034-.156854-.0830289-.2170402-.2220264-.2554748-.1383588-.0382606-.3405942.0141991-.3655849-.2185359.4846792-.0160961.9700341-.0439544,1.446475.0831886Z"/>
        <path class="cls-1" d="m88.0664299.016826c.5703013.038473.9445433.2240734.6826502.8981166-.0140176.0360775.0219992.0905964.0319456.1371263.1791151.837718.1321576.8951222-.7199061.8817196-.3061321-.2562684-.1157843-.6091663-.1675815-.913363-.1200148-.7048193-.1022063-.7094717-.8124373-.788654-.1315307-.0146652-.2504024-.0549791-.3627365-.1210361,0,0-.018167-.0216188-.0181862-.0216542.4495489-.1349019.9092463-.0781231,1.3662517-.0722553Z"/>
        <path class="cls-1" d="m83.7124017,2.7056531c.0317922-.6798875.0901299-1.3598223-.0037142-2.0395033.0790211-.0872716.1836052-.0854926.2884253-.0828434.4551734-.0203679.4082867.3046097.3856709.586456-.035859.4468988-.0393903.8917472.0061127,1.3373509-.1650296.272217-.3841545.3601169-.6764947.1985397Z"/>
        <path class="cls-1" d="m87.1966683,2.0215498c-.1617417.007042-.3234833.0140811-.4852147.0211438-.179475-.3550309-.050446-.7249246.0554834-1.0394557.1127324-.3347338.1075578-.6019945-.0486449-.8925615.0479502-.0021949.0962013-.0094464.143647-.0059092.346136.0258316.8566379-.1614946,1.0018042.0802.2081858.346617.2258734.8472382.1654456,1.2858175-.0233563.1695072.0224978.3094863.031953.4630598-.2862584.0480463-.5907827-.0839792-.8644735.0877052Z"/>
        <path class="cls-1" d="m94.5385992,15.2790321c.1683972-.1917839.1900756-.3855768.0079772-.5821635.0345469-.5990443-.0330527-1.1975886-.0058523-1.7971906.0119105-.2625464.0157457-.5113907.2993807-.6387225.2856618.2290178.5413884.4879606.7718677.7721419.1210872.4708246.073112.951659.0734844,1.427965.0005126.6567996-.0554524,1.3130239-.0372293,1.9704976.0058944.2126621-.0313504.4148173-.1363977.6019798-.1954721.2549822-.4201883.4806884-.6759777.6752912-.2640792-.1290222-.2930002-.3732496-.2630865-.6147008.0753467-.6081603-.0360382-1.2100604-.0341664-1.815098Z"/>
        <path class="cls-1" d="m91.5435085,15.9577262c-.1522171.1298837-.3367634.0853215-.5086521.0855649-3.6302826.0051495-7.260571.0076689-10.890858.007579-.1721645-.0000044-.3558169.0440134-.5110653-.078635.2247627-.2278422.5113013-.1451891.7793013-.1559616.3282862-.0097503.6566845-.0103374.9850827-.0001519.4481668-.0120558.896304-.0123848,1.3444561-.0004868.4199383-.0106088.8398398-.0140944,1.2597176.0007493.4811804-.0098919.9623474-.0175815,1.4434614-.0002272.4492864-.0102474.898586-.0144263,1.3477661.0008983.4123092-.0150207.8246657-.0087516,1.2367773.0003083.2520574-.0108831.5042416-.0043279.7559067.0032083.2539514-.0015651.5084087.0071733.7628233.0023675.5024421-.0094877.5450171-.0525408.5618137-.5414278.0065641-.1910286.002009-.3808094-.0188721-.571335-.024765-.2259747-.0174029-.447893.181282-.6102358.0915917-.038296.1881351-.0264659.2830546-.0271075,1.2166027-.0082354,1.0127285-.0778547,1.0823343,1.046778.016953.2739059.0659962.5741244-.0943294.8381148Z"/>
        <path class="cls-1" d="m88.6490259,23.8106701c-.5756735.199857-.9790807.0887791-1.2579254-.3463663-.2664202-.4157562-.218234-.8774294.1682674-1.2694427.3476775-.3526361.6669023-.7378412,1.0825614-1.0190451.2066134.0070627.2118809.1769158.2216193.3093373.0468881.6375019.0450443,1.2760105.005412,1.9142838-.0106692.1718268-.1027403.2976451-.2199347.4112329Z"/>
        <path class="cls-1" d="m88.5535238,8.7054559c-.3252992-.3030771-.6630214-.5940719-.9726405-.9123969-.358888-.3689792-.4074341-.8865579-.1526169-1.2750288.2645911-.4033692.6695736-.5180006,1.2190793-.3450711.0218193.0233417.0550261.0425147.0646185.0698155.2826135.8043547.2335836,1.6163326.0403403,2.427778-.0199002.0835603-.1199971.0892438-.1987807.0349033Z"/>
        <path class="cls-1" d="m89.6203079,7.0396654c.32297.321877.64594.643754.9689115.965631-.0133096.7187175-.0046922,1.4376651-.0204696,2.1562749-.0033853.1542166.0702031.3666574-.2013429.3902381-.3710765-.3342057-.7551647-.6558024-1.0402976-1.0733088-.0104465-.5873057-.0244242-1.1745243-.0195019-1.762063.002307-.2754209-.0210478-.5570075.3127006-.6767722Z"/>
        <path class="cls-1" d="m90.5820063,21.9639493c-.2917457.3523167-.6138292.6743361-.9655144.9667926-.3737597-.2762823-.2376887-.6998778-.2782827-1.0582283-.051275-.4526487-.0534684-.9147017-.0199223-1.3730412.2903665-.4188369.6632043-.7551579,1.0640375-1.0634686.2625879-.0127653.3128274.1827741.2542774.3497899-.1799795.5133806-.0852562,1.0097285.0060139,1.517919.0385643.2147177.0481183.4485524-.0606092.6602365Z"/>
        <path class="cls-1" d="m95.5118297,17.0335397c.000829-.9404057.0074565-1.8797581.0485314-2.8204603.0170481-.3904446-.0387376-.7880698.0515855-1.179898.2913555.2900522.5826845.5801884.8740142.8703247.0016794.7549425.1324143,1.5158325-.1041209,2.2597989-.2601541.3199196-.5492365.6109187-.8700101.8702347Z"/>
        <path class="cls-1" d="m93.7512403,13.9354253c-.3710161-.3349639-.7564569-.6559603-1.0406826-1.0749491.0130219-.5844396.05814-1.1676903.0553875-1.7529441-.0011756-.2500215-.0117681-.5156301.235305-.6860755.2859487.2301625.5434491.4887807.7742389.7741126.3125737.8316392.2215566,1.6929821.1804072,2.549323-.0047578.0990147-.0375834.2341098-.2046559.190533Z"/>
        <path class="cls-1" d="m90.5820063,21.9639493c.0019766-.726503-.4194737-1.443488-.0412533-2.1803814.0807351-.157301-.010175-.2748397-.1584257-.3475625.2346589-.4097327.6312631-.6575666.9664895-.9667609.2176056-.0265691.2667506.1392519.2211871.2715384-.2031469.5897956.0526158,1.1699796.0137255,1.7559252-.01414.2130516-.0303939.4104938-.131901.5974299-.2599151.3199631-.5491237.6106318-.8698221.8698113Z"/>
        <path class="cls-1" d="m90.3674069,10.5518094c.1333126-.0866048.080949-.2145281.0931184-.339162.0716988-.7343814-.1937257-1.4886763.1286661-2.2073009.3218932.3229892.6437569.6460315.9656206.9690723-.0572122.6856256-.0162317,1.3720831-.0226276,2.0581232-.0015533.1664936-.0227353.3669598-.2721331.3772928-.3076971-.2754504-.6517046-.5131254-.8926444-.8580254Z"/>
        <path class="cls-1" d="m93.7718972,18.7738262c-.1956138.255019-.4204177.4808433-.6759607.6759284-.3048576-.0875223-.4074002-.3439663-.3558509-.5961207.1263783-.6181879-.0819698-1.2348521.0357366-1.8472931.2793993-.3704705.6443897-.6521.9900198-.9538245.2538068.0883853.2174389.3068179.1969266.4930511-.0639333.5804672-.1056594,1.1592174.0354261,1.7332474.0575337.2340832-.1947235.3106443-.2262975.4950114Z"/>
        <path class="cls-1" d="m91.2600513,11.4098349c.2900435-.3103566.1911812-.6920289.1412795-1.0350925-.0711796-.4893383-.0175298-.9465907.1534518-1.4002748.318061.2620714.6074583.5527991.8698221.8705371.08891.6993114.0406279,1.4008191.0193515,2.1007766-.0049326.1622941.0048205.4265766-.3138452.3362177-.328472-.2523624-.6480892-.5135576-.8700596-.8721641Z"/>
        <path class="cls-1" d="m80.4258345,15.9547525c-.2643064.0057971-.5286098.0115926-.7929103.0174369-.4783895-.1095585-.708371-.452864-.7290633-.9007128-.0207513-.4490834.1860597-.8045848.6504243-.9534911.2301378-.095088.4706041-.0248802.7052143-.0441122.0828814.0140988.1680815.0557772.1808557.1330197.0963547.5826503.3100218,1.1683821-.0145206,1.7478595Z"/>
        <path class="cls-1" d="m93.7718972,18.7738262c.115934-.5978451.0242325-1.199819.0064003-1.7970549-.0091956-.3078888.2607647-.624336-.0124526-.9242535.1876698-.32768.4803211-.5504744.7727579-.7734828.3301263.3331245.0942593.7605802.184103,1.1381179.0997105.4190006-.1654094.8796575.1131292,1.2916471-.3242238.3854101-.6783717.740913-1.0639379,1.0650262Z"/>
        <path class="cls-1" d="m91.4518283,21.094138c-.0308305-.4861942.0932334-.9751858-.0878863-1.4624723-.0799755-.2151668.0007316-.470208.0623616-.708153.035946-.1387799.1845655-.3467527-.0774841-.4542668.1722353-.4078269.6462881-.5138866.8700507-.8701963.2238555.025479.2277556.2119305.2294032.3605978.0080067.7220453.0686395,1.4453296-.0282742,2.1660532-.292647.3528802-.6148558.6762087-.968171.9684373Z"/>
        <path class="cls-1" d="m93.7512403,13.9354253c.2777177-.404859.1643289-.8970015.1287428-1.297804-.0424113-.4776734.0620305-.9745154-.1045177-1.4419709.3827576.3272286.73723.6827743,1.0646039,1.065367-.292588.5563172-.1670505,1.1566095-.1488296,1.7361208.0082486.2623354.06308.4970972-.144681.6997421-.2632097-.2557949-.5924089-.4426683-.7953184-.761455Z"/>
        <path class="cls-1" d="m89.3182868,20.4994724c.2047681.0202012.1279433.1418288.1250684.2742187-.015708.723794-.0152331,1.4486714.1731233,2.1570272-.2983334.3198436-.5478094.6934059-.9674586.8798913.1460764-.8786212.1757873-1.7569902-.0070877-2.6347898.1273312-.3235719.4617507-.44005.6763545-.6763473Z"/>
        <path class="cls-1" d="m89.6203079,7.0396654c-.3629725.6502768-.1496712,1.3483137-.1582118,2.0263367-.0020725.1645937.1416409.3474386-.1349971.4125-.2935158-.2220009-.5860418-.4450033-.7735928-.7730447.2520751-.0358518.1476459-.2818817.1533529-.3764402.0433509-.7182514.110179-1.4421464-.0595177-2.1560139.4313657.168693.6710266.5526354.9729665.866662Z"/>
        <path class="cls-1" d="m91.5435085,15.9577262c-.0232029-.4686739-.091248-.9408747-.054768-1.4048564.0269584-.3428423-.086066-.4369258-.3842224-.4337706-.2729813.0028897-.5460127.0010886-.8190221.0013541-.4546822.269668-.9512697.1057882-1.428783.1389893-.3283526.0146549-.6568275.0011447-.9852892.002338-.3863391.0130515-.7726458-.0006476-1.1589672.0001711-.414274.0112947-.8285009.0032466-1.2426259-.0017539-.4343262.0073223-.8687364.0081719-1.3029918-.004319-.1707219-.0050477-.3441698.0057204-.5029731-.0774328-.0569216-.0331775-.0729054-.0805187-.0480977-.1416341,2.5446058-.0043308,5.0892264-.0145841,7.6338056-.0081867.5338847.0013408.9162972.3534761.9796751.8248052.0748245.5564588-.1426321.906644-.6857404,1.1042958Z"/>
        <path class="cls-1" d="m92.4199994,20.1257007c-.2156039-.6198356-.0488868-1.260809-.1060105-1.8891116-.0194149-.2135383.0854893-.4477322-.0951156-.6375351.1234635-.2560324.3497677-.4153911.557005-.5926661.1740334.4883618.1732959,1.0117744.1183922,1.4986611-.0421458.3737585-.0308069.6630362.2016497.9446775-.1956285.2550102-.4200681.4811988-.6759209.6759741Z"/>
        <path class="cls-1" d="m92.1301108,12.2819989c.2391417-.0398861.1830166-.2291152.1843737-.3799641.0046347-.5153307.0052808-1.0307646-.0000738-1.5460805-.0018792-.1809465.0158142-.3529141.1101643-.510901.2195571.1648268.4120187.356767.5766485.5764845-.206131.6840989-.0583922,1.3912429-.1269093,2.0853797-.0156417.1584663-.0160311.2770464-.1637728.3535661-.2180304-.1681856-.4624986-.3098507-.5804306-.5784847Z"/>
        <path class="cls-1" d="m96.3818398,16.1633051c-.0017937-.5853645-.0004219-1.1707643-.0072832-1.7560698-.002099-.1790421.0182666-.3480287.1113628-.5036598.904799.665625.9777332,1.4603445-.1040796,2.2597296Z"/>
        <path class="cls-1" d="m83.6157682,14.036812c.0003894.0270869.0009735.0541708.0017509.0812503-.2632148.2235084-.5782209.1218681-.8742075.1401694-.4494073.014534-.8988707.0121724-1.3484107.00145-.3605814-.0051628-.7323409.0745416-1.0655774-.1390808-.2583501-.0008673-.5167001-.0017362-.7750443-.0026094.1015882-.1014353.2334066-.0965778.360546-.0961884,1.2336531.0037777,2.4672958.0096986,3.700943.0150089Z"/>
        <path class="cls-1" d="m84.0994842,14.1192364c.4510992.0001593.9021999.0003186,1.3532991.0004779.0818975.052532.174386.1099421.1678839.2165387-.0263035.4312556.0094508.8613635.0110173,1.2919612.0005045.1387607-.0820804.2376574-.1795178.3254791-.4832632-.0000015-.9665278-.0000044-1.449791-.0000074-.0752375-.617179-.2006334-1.2370145.0971084-1.8344496Z"/>
        <path class="cls-1" d="m81.3920393,14.1208162l1.3534171-.000177c.0928809.0870606.1971213.1806264.1918862.3129513-.0202454.5117521.0275721,1.0335141-.1917151,1.5204849-.451083.0001711-.902166.0003407-1.353249.0005104-.2389293-.6112123-.2385162-1.2224688-.0003393-1.8337696Z"/>
        <path class="cls-1" d="m88.8359175,14.1203221c.4831997.0000339.966398.0000679,1.4495889.000118-.1815858.4294339.0024752.8664747-.0217603,1.3007217-.019971.3578379-.0972486.5775259-.5175999.5396282-.3012953-.0271651-.6069155-.0063576-.9106063-.0069535-.1442355-.6112005-.2358124-1.2223921.0003776-1.8335144Z"/>
        <path class="cls-1" d="m82.7456275,15.9540754c-.0923941-.6111474.2314654-1.2223331-.0001667-1.8334524.2906704-.0008319.5813466-.0016816.8720406-.0025445.1606708.0003761.3213253.0007685.4819799.0011594-.0977811.6080379.0838151,1.2308649-.097104,1.8344747-.4189176.0001033-.8378337.0002331-1.2567497.0003629Z"/>
        <path class="cls-1" d="m85.4521668,15.9536934c.087398-.6113008.0404081-1.2226458.0006151-1.8339849.4189294.000059.8378573.0001136,1.2567851.0001682.0804224.0545027.1863444.1104539.1773892.2137906-.0467288.5392063.1035619,1.088359-.0814181,1.6199613-.4511243.0000207-.9022471.0000428-1.3533714.0000649Z"/>
        <path class="cls-1" d="m86.8055381,15.9536285c-.0624383-.4426107-.0643766-.8870078-.0147404-1.3297557.0202778-.1808727.0099228-.3462025-.0812337-.5040021.3866592.0001608.7733155.0003157,1.1599717.0004706.2484995.1300651.2107775.372158.2325805.5916645.0412932.4157466.0580692.8304916-.0408197,1.2415416-.4185857.0000266-.8371728.0000546-1.2557585.0000811Z"/>
        <path class="cls-1" d="m81.3920393,14.1208162c.0001151.6112683.0002301,1.2225352.0003393,1.8337873-.3221823.0000472-.6443617.0001121-.966544.0001637.0506864-.6157688.0351805-1.2280402-.096514-1.8341826.3542415.000087.7084801.0001593,1.0627187.0002316Z"/>
        <path class="cls-1" d="m88.0612966,15.9535473c-.2022767-.4157673.0065744-.8596672-.0876753-1.2868398-.0395762-.1793844.002546-.3768311-.1040885-.5463796.3221322-.0000015.6442614-.0000162.9663877-.0000177-.0143628.6111975.085923,1.2224068-.0003732,1.8335513-.258089-.0001224-.5161691-.0002183-.7742507-.0003142Z"/>
      </g>
      <g>
        <path class="cls-1" d="m10.3303272,8.8770735v17.0529105h-5.6739684V8.8770735H0v-4.8209254h14.986686v4.8209254h-4.6563588Z"/>
        <path class="cls-1" d="m29.8787662,22.2570494h-7.9357647l-1.4763289,3.6729346h-6.0007165L22.8612352,4.0561481h6.1978783l8.2315075,21.8738359h-6.0674971l-1.3443577-3.6729346Zm-1.5081292-4.3288157l-2.4597531-7.0835167-2.3937675,7.0835167h4.8535207Z"/>
        <path class="cls-1" d="m45.4950982,18.6826958v7.2472882h-5.6731734V4.0561481h9.0503652c1.9024529,0,3.8700964.3609334,5.5427922,1.9676435,1.705291,1.6401004,2.0328341,3.4765677,2.0328341,5.313035,0,1.7378864-.2297572,3.7715155-1.9342532,5.4434162-1.7060861,1.6726957-3.7389202,1.9024529-5.4442112,1.9024529h-3.5743536Zm0-4.5911682h1.9016579c.5906906,0,1.705291-.0659856,2.3945625-.6884765.6884765-.5906906.7210718-1.4763289.7210718-2.0010338,0-.5898956-.0659856-1.376953-.6558812-1.9676435-.6558812-.6884765-1.705291-.7870574-2.4263628-.7870574h-1.9350482v5.4442112Z"/>
      </g>
    </g>
  </g>
</svg>