<?xml version="1.0" encoding="UTF-8"?>
<svg id="_レイヤー_2" data-name="レイヤー 2" xmlns="http://www.w3.org/2000/svg" viewBox="0 0 413.4658958 60.8544922">
  <defs>
    <style>
      .cls-1 {
        fill: none;
        stroke: #000;
        stroke-miterlimit: 10;
      }

      .cls-2, .cls-3, .cls-4 {
        stroke-width: 0px;
      }

      .cls-3 {
        fill: #e60012;
      }

      .cls-4 {
        fill: #a89563;
      }
    </style>
  </defs>
  <g id="_レイヤー_1-2" data-name="レイヤー 1">
    <g>
      <g>
        <path class="cls-4" d="m3.8183594,9.5458984l-2.8974609.0449219c-.1196289,0-.1948242-.0148926-.2246174-.0449219-.0224529-.0297852-.0336833-.097168-.0336833-.2021484v-1.5722656c0-.1196289.0185547-.190918.0561523-.2133789.0224609-.0224609.0898438-.0336914.2021484-.0336914l2.8974609.0449219h4.1889648c.1723633-.2543945.3330078-.5427246.4829102-.8647461.0224609-.0598145.0786133-.190918.168457-.3930664.0600586-.1271973.1010742-.2282715.1235352-.3032227-1.6547852.0898438-2.949707.1499023-3.8857422.1796875-.7114258.0224609-1.1567383.0786133-1.3364258.168457-.1499023.0749512-.2695312.1123047-.359375.1123047-.097168,0-.190918-.1159668-.2807617-.3481445-.1347656-.5913086-.2509766-1.2426758-.3481445-1.9541016.5688477.0449219,1.1118164.0673828,1.628418.0673828.2695312,0,.5317383-.0073242.7861328-.0224609h.8310547c.6665039-.8908691,1.2055664-1.7331543,1.6171875-2.5268555.2021484-.3666992.3520508-.7336426.4492188-1.1005859.8759766.1796875,1.605957.3557129,2.1899414.527832.2172852.0673828.3256836.1760254.3256836.3256836,0,.0974121-.09375.2172852-.2807617.359375-.2094727.1723633-.3930664.4118652-.550293.71875-.3442383.5615234-.7114258,1.1044922-1.1005859,1.628418,1.9467773-.0449219,3.8930664-.1271973,5.8398438-.2470703-.4194336-.359375-.8945312-.7299805-1.4262695-1.1118164-.097168-.0598145-.1459961-.1123047-.1459961-.1572266,0-.0598145.0786133-.1347656.2358398-.2246094l1.1230469-.6513672c.1420898-.0898438.2431641-.1347656.3032227-.1347656.0673828,0,.1533203.0375977.2583008.1123047,1.6621094,1.1755371,3.1855469,2.4858398,4.5708008,3.9306641.0673828.0825195.1010742.1459961.1010742.190918,0,.0600586-.0786133.142334-.2358398.2470703l-1.269043.8535156c-.1347656.0898438-.2319336.1347656-.2919922.1347656-.0522461,0-.1235352-.0449219-.2133789-.1347656-.097168-.1123047-.2397461-.2731934-.4267578-.4829102-.3745117-.4267578-.6513672-.7336426-.8310547-.9208984-1.6171875.142334-3.2304688.2583008-4.840332.3481445-.0375977.0673828-.1645508.3745117-.3818359.9208984l-.3481445.7524414h7.2211914l2.8974609-.0449219c.1347656,0,.2133703.0151367.2358398.0449219.0297852.0300293.0449219.0974121.0449219.2021484v1.5722656c0,.119873-.0185547.190918-.0561523.2133789-.0297852.0224609-.1049805.0336914-.2246094.0336914l-2.8974609-.0449219h-2.8300781c1.5874023,1.4899902,3.7885742,2.5942383,6.6035156,3.3129883-.3442383.4118652-.621582.909668-.8310547,1.4936523-.1420898.3969727-.2807617.5952148-.4155273.5952148-.0673828,0-.2509766-.0522461-.550293-.1572266-3.3017578-1.2128906-5.7949219-2.9609375-7.4794922-5.2446289h-2.9423828c-1.6694336,2.2163086-4.1367188,3.9494629-7.4008789,5.199707-.3217773.1049805-.5053711.1572266-.550293.1572266-.1123047,0-.265625-.1833496-.4604492-.550293-.2246094-.4716797-.5092773-.8796387-.8535156-1.2241211,2.6953125-.815918,4.840332-2.0102539,6.4350586-3.5825195h-2.6166992Zm-.4379883,4.8515625c2.7177734-.5913086,4.8476562-1.5722656,6.3901367-2.9423828.4418945-.3818359.7636719-.7260742.9658203-1.0332031.7036133.4343262,1.2504883.8012695,1.6396484,1.1005859.1645508.1499023.2470703.2883301.2470703.4155273,0,.1347656-.1308594.2358398-.3930664.3032227-.2246094.0524902-.4902344.2060547-.7973633.4604492-1.9018555,1.5124512-3.9643555,2.5532227-6.1879883,3.1220703-.2319336.0600586-.3857422.0898438-.4604492.0898438-.1274414,0-.2807617-.1533203-.4604492-.4604492-.2172852-.3742676-.5317383-.7260742-.9433594-1.0556641Zm.2583008,2.6728516c3.7358398-.5390625,6.7456055-1.7106934,9.0292969-3.5151367.3295898-.2470703.6289062-.5539551.8984375-.9208984.5239258.2995605,1.0517578.6589355,1.5834961,1.078125.1572266.1123047.2358398.2358398.2358398.3706055,0,.1796875-.1083984.2919922-.3256836.3369141-.2768555.0825195-.550293.2358398-.8198242.4604492-2.1860352,1.8942871-5.1547852,3.1970215-8.9057617,3.9082031-.2021484.0449219-.3481445.0673828-.4379883.0673828-.1723633,0-.3408203-.1833496-.5053711-.550293-.2397461-.5615234-.4902344-.9731445-.7524414-1.2353516Zm0,2.875c2.7329102-.2619629,5.0649414-.7336426,6.996582-1.4150391,1.7143555-.6064453,3.2978516-1.4448242,4.7504883-2.515625.5014648-.3742676.8759766-.7524414,1.1230469-1.1342773.6665039.3818359,1.2578125.7675781,1.7744141,1.1567383.1723633.1274414.2583008.2583008.2583008.3930664,0,.1499023-.1235352.2470703-.3706055.2919922-.2246179.0524902-.5390625.2285156-.9433594.527832-1.7070312,1.3852539-3.5825195,2.4445801-5.6264648,3.1782227-1.7368164.6213379-3.8183594,1.0893555-6.2441406,1.4038086-.1870117.0224609-.3183594.0336914-.3930664.0336914-.1499023,0-.2583008-.0449219-.3256836-.1347656-.0522461-.0673828-.1274414-.2172852-.2246094-.4492188-.2319336-.5839844-.4902344-1.029541-.7749023-1.3364258Z"/>
        <path class="cls-4" d="m26.6049805,9.2202148l-2.8525391.0449219c-.1196289,0-.190918-.0148926-.2133789-.0449219-.0224609-.0297852-.0336914-.097168-.0336914-.2021484v-1.628418c0-.1271973.0151367-.2021484.0449219-.2246094s.097168-.0336914.2021484-.0336914l2.8525391.0449219h4.9301758v-1.796875h-2.1225586l-2.9423828.0449219c-.1196289,0-.190918-.0148926-.2133789-.0449219-.0224609-.0297852-.0336914-.097168-.0336914-.2021484v-1.6396484c0-.1196289.0151367-.190918.0449219-.2133789s.097168-.0336914.2021484-.0336914l2.9423828.0449219h2.1225586v-.1572266c0-1.0256348-.0561523-1.822998-.168457-2.3920898.8535156.0224609,1.6508789.0749512,2.3920898.1572266.2470703.0224609.3706055.0974121.3706055.2246094,0,.0825195-.0449219.2434082-.1347656.4829102-.0898438.2246094-.1347656.7487793-.1347656,1.5722656v.1123047h.7299805l2.9199219-.0449219c.1196289,0,.1948242.0151367.2246094.0449219.0224609.0300293.0336914.0974121.0336914.2021484v1.5273438c.5092773-.5688477.9697266-1.1079102,1.3813477-1.6171875.4267578-.5463867.7709961-1.1118164,1.0332031-1.6958008.8608398.4194336,1.534668.8012695,2.0214844,1.1455078.2021484.1347656.3032227.2807617.3032227.4379883,0,.1123047-.0859375.2133789-.2583008.3032227-.2919922.1274414-.6137695.4082031-.9658203.8422852-.8608398,1.0107422-1.7182617,1.9091797-2.5717773,2.6953125h2.2236328l2.875-.0449219c.1572266,0,.2358398.0861816.2358398.2583008v1.628418c0,.1647949-.0786133.2470703-.2358398.2470703l-2.875-.0449219h-4.5708008c-.9584961.7412109-2.1411133,1.5236816-3.5488281,2.347168,0,.0300293-.0151367.0749512-.0449219.1347656,1.796875-.2021484,3.309082-.4453125,4.5371094-.7299805.9282227-.2246094,1.6958008-.456543,2.3022461-.6962891.5615234.3669434,1.1118164.8049316,1.6508789,1.3139648.1645508.1499023.2470703.2958984.2470703.4379883,0,.1872559-.1308594.2807617-.3930664.2807617-.4418945,0-.8686523.0449219-1.2802734.1347656-2.440918.5317383-5.0014648.9172363-7.6816406,1.1567383-.0449219.1499023-.1308594.3781738-.2583008.6850586h6.1206055l2.6953125-.0449219c.2021484,0,.3032227.0786133.3032227.2358398v.0673828c-.0825195,1.0856934-.1386719,1.7407227-.168457,1.965332-.2397461,2.0515137-.5766602,3.4179688-1.0107422,4.0991211-.456543.6887207-1.3066406,1.0332031-2.5493164,1.0332031-.71875,0-1.3100586-.0224609-1.7744141-.0673828-.3745117-.0151367-.5991211-.0637207-.6738281-.1459961-.0522461-.0600586-.1196289-.2658691-.2021484-.6176758-.1572266-.6513672-.3930664-1.2089844-.7075195-1.6733398,1.340332.1499023,2.2348633.2246094,2.684082.2246094.6962891,0,1.1118164-.1459961,1.246582-.4379883.2919922-.5090332.4755859-1.3962402.550293-2.6616211h-7.2885742c-.3520508.7712402-.5766602,1.246582-.6738281,1.4262695-.0600586.1347656-.1347656.2021484-.2246094.2021484-.0449219,0-.1049805-.0073242-.1796875-.0224609l-1.8417969-.3144531c-.1796875-.0449219-.2695312-.1047363-.2695312-.1796875,0-.0373535.0224609-.0935059.0673828-.168457.8085938-1.4150391,1.4560547-2.7888184,1.9428711-4.121582-1.5722656.7563477-3.1894531,1.4487305-4.8515625,2.0776367-.2695312.119873-.4453125.1796875-.527832.1796875-.1049805,0-.265625-.190918-.4829102-.5727539-.3369141-.598877-.6738281-1.0668945-1.0107422-1.4038086,3.953125-1.1679688,7.2099609-2.5493164,9.7705078-4.144043h-6.2329102Zm10.7924805-3.7958984l-2.8076172-.0449219h-.7299805v1.796875h1.6508789c.6665039-.5539551,1.2954102-1.1379395,1.8867188-1.7519531Z"/>
        <path class="cls-4" d="m46.9545898,4.2338867c.9658203.1049805,2.4370117.1572266,4.4135742.1572266h8.2094727c.5766602,0,.9995117-.0786133,1.269043-.2358398.1347656-.0898438.265625-.1347656.3930664-.1347656.1499023,0,.2768555.0524902.3818359.1572266.6889648.5541992,1.2128906,1.0856934,1.5722656,1.5947266.1196289.1647949.1796875.3144531.1796875.4492188,0,.142334-.074707.2883301-.2246094.4379883-.1572266.1572266-.3369141.4604492-.5390625.909668-1.2353516,2.9799805-2.7216797,5.4731445-4.4584961,7.4794922-2.0664062,2.3583984-4.2412109,4.1853027-6.5249023,5.4804688-.2094727.1347656-.4194336.2021484-.6289062.2021484s-.4003906-.0861816-.5727539-.2583008c-.4790039-.4567871-1.1904297-.8759766-2.1337891-1.2578125,1.7744141-.8984375,3.2607422-1.822998,4.4584961-2.7739258,1.0405273-.8310547,2.059082-1.822998,3.0546875-2.9760742,1.7294922-1.9765625,3.0283203-4.1665039,3.8969727-6.5698242h-8.3105469c-.8686523,0-2.1337891.0375977-3.7958984.1123047-.2397461.0151367-.3857422-.1384277-.4379883-.4604492-.0522461-.3818359-.1196289-1.152832-.2021484-2.3134766ZM64.7998047.0224609c.7412109,0,1.3549805.2695312,1.8417969.8085938.4267578.4643555.6401367,1.0146484.6401367,1.6508789,0,.7412109-.2734375,1.3552246-.8198242,1.8417969-.4643555.4194336-1.0180664.6289062-1.6621094.6289062-.7412109,0-1.3549805-.2695312-1.8417969-.8085938-.4267578-.4641113-.6401367-1.0180664-.6401367-1.6621094,0-.7561035.2734375-1.3701172.8198242-1.8417969.4643555-.4116211,1.0180664-.6176758,1.6621094-.6176758Zm0,1.1005859c-.4194336,0-.7597656.1459961-1.0219727.4379883-.2246094.2546387-.3369141.5615234-.3369141.9208984,0,.4267578.1459961.7712402.4379883,1.0332031.2470703.2246094.5541992.3369141.9208984.3369141.4194336,0,.7597656-.1459961,1.0219727-.4379883.2246094-.2543945.3369141-.5651855.3369141-.9321289,0-.4191895-.1459961-.7597656-.4379883-1.0219727-.2470703-.2246094-.5541992-.3369141-.9208984-.3369141Z"/>
        <path class="cls-4" d="m69.7861328,7.2324219c1.1679688.119873,2.5791016.1796875,4.2338867.1796875h7.8837891c.5166016,0,.9248047-.0859375,1.2241211-.2583008.1123047-.0898438.2094727-.1347656.2919922-.1347656.097168,0,.2133789.0524902.3481445.1572266.6137695.4868164,1.1303711.9621582,1.5498047,1.4262695.1499023.1572266.2246094.3183594.2246094.4829102,0,.1647949-.0859375.310791-.2583008.4379883-.284668.2397461-.5429688.5991211-.7749023,1.078125-1.2280273,2.6130371-2.6279297,4.7280273-4.2001953,6.3452148-1.3852539,1.4301758-3.1147461,2.706543-5.1884766,3.8295898-.2172852.1047363-.3706055.1572266-.4604492.1572266-.1499023,0-.3183594-.0898438-.5053711-.2695312-.4941406-.4418945-1.2055664-.8422852-2.1337891-1.2016602,2.4257812-1.1230469,4.4697266-2.5192871,6.1318359-4.1889648,1.6098633-1.6171875,2.7851562-3.4177246,3.5263672-5.4018555l-7.8500977.0224609c-1.2802734,0-2.4296875.0300293-3.4477539.0898438-.1796875,0-.2919922-.1459961-.3369141-.4379883-.074707-.2993164-.1611328-1.0705566-.2583008-2.3134766Zm1.9990234-4.9077148c1.0932617.1049805,2.3510742.1572266,3.7734375.1572266h4.144043c.9282227,0,2.1298828-.0373535,3.6049805-.1123047.1870117,0,.2807617.119873.2807617.359375.0224609.2995605.0336914.5991211.0336914.8984375,0,.3071289-.0112305.6064453-.0336914.8984375,0,.3071289-.1083984.4604492-.3256836.4604492h-.0898438l-3.2456055-.0449219h-4.5483398c-1.2578125,0-2.3095703.0300293-3.1557617.0898438-.1948242,0-.3032227-.168457-.3256836-.5053711-.074707-.5314941-.1123047-1.2651367-.1123047-2.2011719Z"/>
        <path class="cls-4" d="m89.2373047,5.6601562c.3818359-.4641113.9169922-1.0629883,1.605957-1.796875.097168-.1196289.2060547-.1796875.3256836-.1796875.0673828,0,.168457.0375977.3032227.1123047,1.4301758.7636719,2.8935547,1.8530273,4.3911133,3.2680664.1347656.1347656.2021484.2434082.2021484.3256836,0,.0825195-.0449219.1796875-.1347656.2919922-.5014648.6665039-.9770508,1.2429199-1.4262695,1.7294922-.1274414.119873-.2207031.1796875-.2807617.1796875-.074707,0-.1723633-.0598145-.2919922-.1796875-1.3999023-1.4448242-2.9648438-2.6953125-4.6943359-3.7509766Zm.5053711,11.4775391c1.2280273-.3369141,2.2646484-.71875,3.1108398-1.1455078,1.4824219-.7709961,2.7138672-1.4785156,3.6948242-2.1225586.8608398-.5615234,1.8344727-1.2802734,2.9199219-2.15625,1.5424805-1.2502441,2.7666016-2.3283691,3.6723633-3.234375.8608398-.8684082,1.7407227-1.8754883,2.6391602-3.0209961.1196289,1.0107422.3330078,1.9055176.6401367,2.684082.074707.1796875.1123047.3256836.1123047.4379883,0,.1723633-.1235352.4042969-.3706055.6962891-1.3403427,1.5649414-3.1035156,3.1894531-5.2895508,4.8740234-1.9018555,1.4899902-4.215332,2.9912109-6.9404297,4.503418-.8085938.4868164-1.3212891.8422852-1.5385742,1.0668945-.1572266.1499023-.2958984.2246094-.4155273.2246094s-.2509766-.0822754-.3930664-.2470703c-.7114258-.8010254-1.3251953-1.654541-1.8417969-2.5605469Z"/>
        <path class="cls-4" d="m118.5825195.71875c-1.9692383,1.6247559-3.3618164,3.3842773-4.1777344,5.2783203-.6665039,1.5424805-.9995117,3.2944336-.9995117,5.2558594,0,2.2387695.4418945,4.2189941,1.3251953,5.940918.8383789,1.6323242,2.1225586,3.1630859,3.8520508,4.5932617l-.5952148.7075195c-2.3208008-1.6921387-3.9755859-3.5263672-4.9638672-5.5029297-.8461914-1.6845703-1.269043-3.5974121-1.269043-5.7387695,0-2.4482422.5576172-4.6081543,1.6733398-6.4799805.9956055-1.6918945,2.515625-3.282959,4.5595703-4.7729492l.5952148.71875Z"/>
        <path class="cls-4" d="m127.4658203,1.4487305l2.324707-.0449219c.1049805,0,.168457.0187988.190918.0561523.0224609.0300293.0336914.1049805.0336914.2246094l-.0449219,2.1787109v2.8525391l.0449219,2.1787109c0,.1347656-.0151367.2172852-.0449219.2470703-.0224609.0224609-.0825195.0336914-.1796875.0336914l-2.324707-.0449219h-3.7285156v7.4458008l.0449219,4.9077148c0,.1196289-.0151367.190918-.0449219.2133789s-.097168.0336914-.2021484.0336914h-1.965332c-.1123047,0-.1816406-.0131836-.2080078-.0393066-.0258789-.0263672-.0390625-.095459-.0390625-.2077637l.0449219-4.9077148V6.6259766l-.0449219-4.9414062c0-.1347656.0151367-.217041.0449219-.2470703.0297852-.0224609.1010742-.0336914.2133789-.0336914l2.706543.0449219h3.1782227Zm.2470703,1.7294922h-3.9755859v1.3588867h3.9755859v-1.3588867Zm0,4.3012695v-1.3813477h-3.9755859v1.3813477h3.9755859Zm.7636719,12.6679688h-1.628418c-.1274414,0-.2021484-.0151367-.2246094-.0449219-.0224609-.0300293-.0336914-.1049805-.0336914-.2246094l.0449219-4.1665039v-2.0214844l-.0449219-2.875c0-.1271973.0151367-.2021484.0449219-.2246094s.1010742-.0336914.2133789-.0336914l2.4594727.0449219h3.0996094l2.4707031-.0449219c.1196289,0,.190918.0151367.2133789.0449219.0224609.0300293.0336914.1010742.0336914.2133789l-.0449219,2.4819336v2.2797852l.0449219,4.0654297c0,.119873-.0131836.1928711-.0395508.2189941-.0258789.0263672-.0952148.0393066-.2075195.0393066h-1.6621094c-.1196289,0-.190918-.0148926-.2133789-.0449219-.0224609-.0297852-.0336914-.1010742-.0336914-.2133789v-.7075195h-4.2114258v.9433594c0,.1271973-.0151367.2038574-.0449219.2302246-.0297852.026123-.1083984.0393066-.2358398.0393066Zm.2807617-7.7714844v1.5498047h4.2114258v-1.5498047h-4.2114258Zm0,4.8066406h4.2114258v-1.605957h-4.2114258v1.605957Zm6.5249023,1.9091797c.5913086.0749512,1.2353516.1123047,1.9316406.1123047.3969727,0,.6586914-.0710449.7861328-.2133789.1049805-.1271973.1572266-.3554688.1572266-.6850586v-9.175293h-3.7734375l-2.515625.0449219c-.1274414,0-.2021484-.0185547-.2246094-.0561523-.0224609-.0297852-.0336914-.1047363-.0336914-.2246094l.0449219-2.0102539v-3.1782227l-.0449219-2.0214844c0-.1347656.0151367-.217041.0449219-.2470703.0297852-.0224609.1010742-.0336914.2133789-.0336914l2.515625.0449219h3.3803711l2.5605469-.0449219c.1196289,0,.190918.0187988.2133789.0561523.0224609.0300293.0336914.1049805.0336914.2246094l-.0449219,3.0322266v9.4448242l.0898438,4.5820312c0,1.0107422-.2207031,1.7182617-.6625977,2.1225586-.2695312.239502-.644043.4042969-1.1230469.4941406-.4716797.0822754-1.1943359.1235352-2.1674805.1235352-.3666992,0-.5800781-.0336914-.6401367-.1010742-.0600586-.0600586-.1235352-.2658691-.190918-.6176758-.1420898-.6665039-.3256836-1.2241211-.550293-1.6733398Zm2.875-15.9135742h-4.2451172v1.3588867h4.2451172v-1.3588867Zm-4.2451172,4.3012695h4.2451172v-1.3813477h-4.2451172v1.3813477Z"/>
        <path class="cls-4" d="m164.9306641,19.1367188c-.434082.4418945-.8310547,1.0332031-1.1904297,1.7744141-.1645508.3217773-.3032227.4829102-.4155273.4829102-.0898438,0-.265625-.1086426-.527832-.3256836-1.3999023-1.1604004-2.5756836-2.3845215-3.5263672-3.6723633-1.1381836,1.3776855-2.5419922,2.6877441-4.2114258,3.9306641-.2470703.1870117-.4155273.2807617-.5053711.2807617-.1196289,0-.2734375-.1835938-.4604492-.550293-.3442383-.6813965-.7036133-1.1679688-1.078125-1.4599609,2.059082-1.2426758,3.6987305-2.684082,4.9189453-4.3237305-1.4750977-2.6279297-2.3920898-5.7685547-2.7514648-9.4223633l-1.1342773.0224609c-.1196289,0-.190918-.0185547-.2133789-.0561523-.0224609-.0297852-.0336914-.1047363-.0336914-.2246094v-1.8417969h-.8759766v15.3408203l.0449219,2.4370117c0,.1271973-.0151367.2021484-.0449219.2246094s-.097168.0336914-.2021484.0336914h-1.796875c-.1274414,0-.2021484-.0151367-.2246094-.0449219-.0224609-.0300293-.0336914-.1010742-.0336914-.2133789l.0449219-2.4370117v-1.9316406c-1.5795898.5690918-3.402832,1.1381836-5.4692383,1.7070312-.3666992.0898438-.6137695.1835938-.7412109.2807617-.1347656.1049805-.2583008.1572266-.3706055.1572266-.1499023,0-.2470703-.1010742-.2919922-.3032227-.1723633-.6586914-.3330078-1.3850098-.4829102-2.1787109.7636719-.0898438,1.4223633-.2058105,1.9765625-.3481445V3.7285156c-.3745117.0075684-.7299805.0187988-1.0668945.0336914-.2246094.0075684-.3442383.0112305-.359375.0112305-.1196289,0-.1948242-.0148926-.2246094-.0449219-.0224609-.0297852-.0336914-.097168-.0336914-.2021484v-1.6396484c0-.1271973.0185547-.2058105.0561523-.2358398.0224609-.0224609.0898438-.0336914.2021484-.0336914l2.8300781.0449219h4.5708008l2.8637695-.0449219c.1196289,0,.190918.0187988.2133789.0561523.0224609.0300293.0336914.1010742.0336914.2133789v1.7519531c.2470703.0151367,1.0292969.0224609,2.347168.0224609h4.9638672c.2768555,0,.4643555-.0224609.5615234-.0673828.097168-.0598145.2094727-.0898438.3369141-.0898438.1572266,0,.4790039.2470703.9658203.7412109.3666992.4194336.550293.7114258.550293.8759766,0,.142334-.0859375.3256836-.2583008.550293-.1196289.1647949-.2319336.5541992-.3369141,1.1679688-.5541992,3.4516602-1.4750977,6.2553711-2.7626953,8.4116211,1.0405273,1.3776855,2.421875,2.6728516,4.144043,3.8857422Zm-17.4072266-12.9487305h3.1894531v-2.4594727h-3.1894531v2.4594727Zm0,4.4921875h3.1894531v-2.4707031h-3.1894531v2.4707031Zm3.1894531,4.3012695v-2.2797852h-3.1894531v3.2231445c.8608398-.2246094,1.9243164-.5390625,3.1894531-.9433594Zm10.5566406-9.152832h-3.8183594c.3071289,2.8601074.9360352,5.2446289,1.8867188,7.1538086.9584961-1.9614258,1.6020508-4.3461914,1.9316406-7.1538086Z"/>
        <path class="cls-4" d="m169.2431641,1.5947266c1.1303711.2246094,1.965332.4604492,2.5043945.7075195.2919922.1123047.4379883.2658691.4379883.4604492,0,.119873-.0522461.2434082-.1572266.3706055-.1420898.1647949-.2807617.5241699-.4155273,1.078125-.2094727,1.0107422-.4228516,2.4746094-.6401367,4.3911133-.0600586,1.0107422-.0898438,1.6621094-.0898438,1.9541016,0,.2021484.0039062.3969727.0112305.5839844.5541992-.9882812,1.0893555-1.9726562,1.605957-2.9536133.1723633.5615234.4116211,1.0595703.71875,1.4936523.0898438.1123047.1347656.2358398.1347656.3706055,0,.1572266-.074707.3481445-.2246094.5727539-.71875,1.3701172-1.171875,2.3510742-1.3588867,2.9423828-.0522461.1572266-.09375.3894043-.1235352.6962891,0,.1948242-.097168.3144531-.2919922.359375-.284668.0749512-.8984375.168457-1.8417969.2807617-.1499023.0224609-.2583008-.0786133-.3256836-.3032227-.456543-1.2353516-.6850586-2.7888184-.6850586-4.6606445,0-.9882812.1835938-2.8974609.550293-5.7275391.1274414-1.0705566.190918-1.9428711.190918-2.6166992Zm7.355957.0449219c1.2954102.0600586,2.1713867.1499023,2.6279297.2695312.3144531.0825195.4716797.2246094.4716797.4267578,0,.0524902-.0039062.119873-.0112305.2021484-.0375977.2097168-.0561523.5615234-.0561523,1.0556641.2172852,2.8974609.3256836,4.8740234.3256836,5.9296875,0,3.519043-.5839844,6.1806641-1.7519531,7.9848633-.8984375,1.4375-2.1635742,2.6728516-3.7958984,3.7060547-.1499023.1047363-.3032227.1572266-.4604492.1572266-.1499023,0-.3105469-.0861816-.4829102-.2583008-.5766602-.501709-1.2280273-.8535156-1.9541016-1.0556641,1.8193359-1.0107422,3.1259766-2.036377,3.9194336-3.0771484.7338867-1.0031738,1.2426758-2.0776367,1.5273438-3.2231445.2695312-1.0854492.4042969-2.4594727.4042969-4.121582,0-1.9765625-.09375-3.8071289-.2807617-5.4916992-.097168-.958252-.2583008-1.7929688-.4829102-2.5043945Z"/>
        <path class="cls-4" d="m184,.71875l.5952148-.71875c2.3208008,1.699707,3.9755859,3.5339355,4.9638672,5.5029297.8461914,1.6921387,1.269043,3.6088867,1.269043,5.75,0,2.440918-.5576172,4.6008301-1.6733398,6.4799805-.9956055,1.6845703-2.515625,3.2717285-4.5595703,4.7617188l-.5952148-.7075195c1.9692383-1.6247559,3.3618164-3.3840332,4.1777344-5.2783203.6665039-1.5498047.9995117-3.3017578.9995117-5.2558594,0-2.2460938-.4418945-4.2299805-1.3251953-5.9521484-.8310547-1.6245117-2.1152344-3.1518555-3.8520508-4.5820312Z"/>
        <path class="cls-4" d="m217.2084961,8.6474609c-.4116211.501709-.7412109,1.0856934-.9882812,1.7519531-.1572266.3969727-.2958984.5952148-.4155273.5952148-.0375977,0-.2207031-.0673828-.550293-.2021484-1.0932617-.4790039-2.1450195-1.0219727-3.1557617-1.628418v1.6733398c0,.1647949-.074707.2470703-.2246094.2470703l-2.9985352-.0449219h-1.628418v2.5717773h2.6166992l3.1333008-.0449219c.1347656,0,.2133789.0151367.2358398.0449219.0297852.0300293.0449219.0974121.0449219.2021484v1.7631836c0,.1123047-.0151367.1816406-.0449219.2077637-.0297852.0263672-.1083984.0393066-.2358398.0393066l-3.1333008-.0449219h-2.6166992v2.8076172h5.4692383l2.9760742-.0449219c.1196289,0,.190918.0151367.2133789.0449219.0224609.0300293.0336914.1010742.0336914.2133789v1.796875c0,.1196289-.0151367.190918-.0449219.2133789s-.097168.0336914-.2021484.0336914l-2.9760742-.0449219h-13.128418l-2.9873047.0449219c-.1196289,0-.1948242-.0151367-.2246094-.0449219-.0224609-.0300293-.0336914-.0974121-.0336914-.2021484v-1.796875c0-.1271973.0185547-.2021484.0561523-.2246094.0224609-.0224609.0898438-.0336914.2021484-.0336914l2.9873047.0449219h5.199707v-2.8076172h-2.324707l-3.1220703.0449219c-.1274414,0-.2021484-.0148926-.2246094-.0449219-.0224609-.0297852-.0336914-.097168-.0336914-.2021484v-1.7631836c0-.1196289.0151367-.190918.0449219-.2133789s.1010742-.0336914.2133789-.0336914l3.1220703.0449219h2.324707v-2.5717773h-1.4711914l-2.9648438.0449219c-.1196289,0-.1948242-.0148926-.2246094-.0449219-.0224609-.0297852-.0336914-.097168-.0336914-.2021484v-1.4936523c-.9506836.6064453-1.8867188,1.1342773-2.8076172,1.5834961-.3295898.1347656-.5205078.2021484-.5727539.2021484-.1196289,0-.265625-.190918-.4379883-.5727539-.262207-.598877-.6137695-1.104248-1.0556641-1.5161133,2.2685547-1.0256348,4.1401367-2.1450195,5.6152344-3.3579102,1.2651367-1.0332031,2.3623047-2.2272949,3.2905273-3.5825195.4042969-.598877.6923828-1.152832.8647461-1.6621094.9584961.1274414,1.7631836.2883301,2.4145508.4829102.2768555.0673828.4155273.1835938.4155273.3481445,0,.119873-.074707.2358398-.2246094.3481445l-.2358398.1796875c1.3701172,1.7670898,2.949707,3.2307129,4.7392578,4.3911133,1.4375.9360352,3.140625,1.7558594,5.1098633,2.4594727Zm-16.3964844.2133789c.2768555.0151367,1.1118164.0224609,2.5043945.0224609h5.559082l2.7402344-.0224609c-2.2983398-1.5048828-4.1367188-3.2304688-5.5141602-5.1772461-1.4301758,1.9916992-3.1933594,3.7172852-5.2895508,5.1772461Z"/>
        <path class="cls-4" d="m221.1616211,7.4121094l-2.15625.0449219c-.1572266,0-.2358398-.0822754-.2358398-.2470703v-1.6396484c0-.1645508.0786133-.2470703.2358398-.2470703l2.15625.0449219h.4604492v-1.5161133c0-1.3549805-.0600586-2.3845215-.1796875-3.0883789.8535156.0224609,1.5874023.0749512,2.2011719.1572266.262207.0524902.3930664.1386719.3930664.2583008,0,.142334-.0449219.3032227-.1347656.4829102-.0898438.2246094-.1347656.9472656-.1347656,2.1674805v1.5385742l1.7856445-.0449219c.1572266,0,.2358398.0825195.2358398.2470703v1.6396484c0,.1647949-.0786133.2470703-.2358398.2470703-.0224609,0-.2060547-.0036621-.550293-.0112305-.359375-.0148926-.7563477-.026123-1.1904297-.0336914.5317383,1.5124512,1.3515625,2.9238281,2.4594727,4.2338867-.3295898.4567871-.6137695.9697266-.8535156,1.5385742-.1196289.262207-.2021484.3930664-.2470703.3930664-.0673828,0-.168457-.1235352-.3032227-.3706055-.5317383-.958252-.9208984-1.871582-1.1679688-2.7402344.0073242,2.5756836.0375977,5.2558594.0898438,8.0410156.0151367.6289062.0336914,1.4038086.0561523,2.324707.0073242.434082.0112305.6774902.0112305.7299805,0,.1196289-.0185547.190918-.0561523.2133789-.0297852.0224609-.1049805.0336914-.2246094.0336914h-1.7856445c-.1274414,0-.2021484-.0151367-.2246094-.0449219-.0224609-.0300293-.0336914-.0974121-.0336914-.2021484,0-.0524902.0112305-.5952148.0336914-1.628418.0600586-3.1445312.1010742-6.0231934.1235352-8.6362305-.4868164,1.7446289-1.1977539,3.4216309-2.1337891,5.03125-.1499023.2470703-.265625.3706055-.3481445.3706055-.074707,0-.1572266-.1384277-.2470703-.4155273-.1948242-.6586914-.456543-1.2089844-.7861328-1.6508789,1.6020508-2.253418,2.6992188-4.6606445,3.2905273-7.2211914h-.3032227Zm19.0019531,11.3652344c-.4492188.4716797-.7709961.9697266-.9658203,1.4936523-.1274414.3369141-.2431641.5053711-.3481445.5053711s-.2880859-.0825195-.550293-.2470703c-1.9916992-1.2502441-3.6313477-2.7177734-4.9189453-4.4023438.0073242,1.1455078.0375977,2.4072266.0898438,3.784668l.0673828,1.6171875c0,.1271973-.0151367.2021484-.0449219.2246094s-.097168.0336914-.2021484.0336914h-1.9316406c-.1347656,0-.2172852-.0151367-.2470703-.0449219-.0224609-.0300293-.0336914-.1010742-.0336914-.2133789,0-.0600586.0151367-.3706055.0449219-.9321289.0825195-1.6621094.1308594-3.1293945.1459961-4.4023438-1.362793,1.8044434-3.0585938,3.3168945-5.0874023,4.5371094-.262207.1645508-.4306641.2470703-.5053711.2470703-.1049942,0-.2431641-.168457-.4155273-.5053711-.1870117-.3745117-.5317383-.793457-1.0332031-1.2578125,2.3432617-1.0180664,4.3125-2.4743652,5.9072266-4.3686523h-.3706055l-2.9873047.0449219c-.1645508,0-.2470703-.074707-.2470703-.2246094l.0449219-2.2236328v-3.4702148l-.0449219-2.1787109c0-.1271973.0151367-.2021484.0449219-.2246094s.097168-.0336914.2021484-.0336914l2.9873047.0449219h1.4262695v-1.5385742h-2.2460938l-3.1557617.0898438c-.1499023,0-.2246094-.097168-.2246094-.2919922v-1.5610352c0-.1347656.0151367-.217041.0449219-.2470703.0224609-.0224609.0825195-.0336914.1796875-.0336914l3.1557617.0449219h2.2460938c0-.7485352-.0522461-1.5385742-.1572266-2.3696289.8984375.0224609,1.6733398.0749512,2.324707.1572266.2470703.0300293.3706055.1235352.3706055.2807617,0,.0898438-.0522461.2434082-.1572405.4604492-.097154.2321777-.1459821.7226562-.1459821,1.4711914h2.8076172l3.1445312-.0449219c.1123047,0,.1796875.0151367.2021484.0449219.0224609.0375977.0336914.1162109.0336914.2358398v1.5610352c0,.1948242-.0786133.2919922-.2358398.2919922l-3.1445312-.0898438h-2.8076172v1.5385742h1.7070312l2.9760742-.0449219c.1274414,0,.2021484.0151367.2246094.0449219.0224609.0300293.0336914.1010742.0336914.2133789l-.0449219,2.1787109v3.4702148l.0449219,2.2236328c0,.1499023-.0859375.2246094-.2583008.2246094l-2.9760742-.0449219h-.71875c1.3925781,1.4824219,3.309082,2.7927246,5.75,3.9306641Zm-11.5-8.8608398h2.6054688v-1.6508789h-2.6054688v1.6508789Zm0,3.2456055h2.6054688v-1.6621094h-2.6054688v1.6621094Zm7.5244141-4.8964844h-2.8300781v1.6508789h2.8300781v-1.6508789Zm0,4.8964844v-1.6621094h-2.8300781v1.6621094h2.8300781Z"/>
        <path class="cls-4" d="m244.1166992,12.5556641c.5913086.2995605,1.1831055.6064453,1.7744141.9208984.1196289.0673828.1796875.142334.1796875.2246094,0,.0524902-.0224609.1162109-.0673828.190918-.4042969.6140137-.6064453,1.197998-.6064453,1.7519531,0,.7861328.4755859,1.3476562,1.4262695,1.6845703.8686523.3144531,2.2124023.4716797,4.0317383.4716797,2.1264648,0,4.2041016-.2207031,6.2329102-.6625977.0825195-.0148926.1499023-.0224609.2021484-.0224609.1499023,0,.2431641.0786133.2807617.2358398.1796875.6813965.3032227,1.4301758.3706055,2.2460938v.0449219c0,.1572266-.1308594.2583008-.3930664.3032227-2.0141602.3666992-4.2602539.550293-6.7382812.550293-5.2783203,0-7.9174805-1.5498047-7.9174805-4.6494141,0-.9282227.4082031-2.0251465,1.2241211-3.2905273Zm.5053711-8.6923828c1.6845703.3969727,3.8369141.5952148,6.4575195.5952148,1.4150391,0,3.0097656-.0673828,4.7841797-.2021484h.0673828c.1645508,0,.2583008.0861816.2807617.2583008.1196289.6889648.1870117,1.340332.2021484,1.9541016,0,.2995605-.1308594.4604492-.3930664.4829102-1.8041992.262207-3.6796875,1.0219727-5.6264648,2.2797852-.1870117.1347656-.3818359.2021484-.5839844.2021484-.1572266,0-.3183594-.0449219-.4829102-.1347656-.5166016-.3369141-1.0517578-.5839844-1.605957-.7412109,1.2504883-.815918,2.253418-1.4523926,3.0097656-1.9091797-.3369141.0449219-.8945312.0673828-1.6733398.0673828-1.4750977,0-2.8862305-.1308594-4.2338867-.3930664-.2021484-.0449219-.3032227-.1853027-.3032227-.4211426s.0336914-.9152832.1010742-2.0383301Zm11.5-1.1005859l1.2128906-.8535156c.0449219-.0373535.0898438-.0561523.1347656-.0561523.0600586,0,.1308594.0336914.2133789.1010742.7788086.6064453,1.5048828,1.4301758,2.1787109,2.4707031.0449219.0600586.0673828.1162109.0673828.168457,0,.0673828-.0449219.1311035-.1347656.190918l-.9658203.71875c-.0673828.0449219-.1274414.0673828-.1796875.0673828-.0673828,0-.1386719-.048584-.2133789-.1459961-.7114258-1.0930176-1.4824219-1.9802246-2.3134766-2.6616211Zm2.1113281-1.5161133l1.1455078-.8310547c.0600586-.0373535.1123047-.0561523.1572266-.0561523s.1083984.0336914.190918.1010742c.8833008.6665039,1.6132812,1.4562988,2.1899414,2.3696289.0449219.0749512.0673828.1386719.0673828.190918,0,.0825195-.0449219.1572266-.1347656.2246094l-.9208984.71875c-.0673828.0449219-.1308594.0673828-.190918.0673828-.074707,0-.1420898-.048584-.2021484-.1459961-.644043-1.0256348-1.4111328-1.9052734-2.3022461-2.6391602Z"/>
        <path class="cls-4" d="m278.1787109,19.1704102c.8383789.0600586,1.5498047.0898438,2.1337891.0898438.4941406,0,.7412109-.2507324.7412109-.7524414v-3.8183594h-5.4130859v2.7402344l.0449219,3.402832c0,.1196289-.0151367.190918-.0449219.2133789s-.097168.0336914-.2021484.0336914h-1.987793c-.1196289,0-.190918-.0151367-.2133789-.0449219-.0224609-.0300293-.0336914-.0974121-.0336914-.2021484l.0449219-3.402832v-2.7402344h-5.2446289c-.2768555,2.5083008-.9433594,4.6308594-1.9990234,6.3676758-.1723633.3068848-.3105469.4604492-.4155273.4604492-.074707,0-.2358398-.1235352-.4829102-.3706055-.4716797-.4716797-1.0146484-.861084-1.628418-1.1679688.9057617-1.1679688,1.534668-2.5979004,1.8867188-4.2900391.3217773-1.5422363.4829102-3.5898438.4829102-6.1430664v-3.7734375l-.0449219-3.762207c0-.1347656.0185399-.217041.0561523-.2470703.0297852-.0224609.1049805-.0336914.2246094-.0336914l3.1445312.0449219h10.8149414l3.1669922-.0449219c.1274414,0,.2021484.0187988.2246094.0561523.0224609.0300293.0336914.1049805.0336914.2246094l-.0449219,3.762207v10.1860352l.0449219,3.1669922c0,.8237305-.2543945,1.4448242-.7636719,1.8642578-.4418945.3967285-1.4526367.5952148-3.0322266.5952148-.3745117,0-.5913086-.0300293-.6513672-.0898438-.0600586-.0524902-.1274414-.2434082-.2021484-.5727539-.1499023-.6665039-.3632812-1.2502441-.6401367-1.7519531Zm-10.0063477-6.6147461h5.0761719v-3.2456055h-5.0087891v.2583008c0,1.0932617-.0224609,2.0888672-.0673828,2.9873047Zm.0673828-5.3793945h5.0087891v-3.1894531h-5.0087891v3.1894531Zm12.8139648-3.1894531h-5.4130859v3.1894531h5.4130859v-3.1894531Zm-5.4130859,8.5688477h5.4130859v-3.2456055h-5.4130859v3.2456055Z"/>
        <path class="cls-4" d="m289.4765625,16.2617188c.0522461-.1047363.1049805-.1572266.1572266-.1572266.0297852,0,.1308594.0300293.3032227.0898438l1.3925781.5727539c.1870117.0600586.2807617.1274414.2807617.2021484,0,.0375977-.0151367.09375-.0449219.168457-.494156,1.2504883-1.3291016,2.5532227-2.5043945,3.9082031-.074707.0898438-.1459961.1347656-.2133789.1347656s-.1572266-.0449219-.2695312-.1347656l-1.3139648-.9208984c-.1499023-.1123047-.2246094-.2058105-.2246094-.2807617,0-.0522461.0375977-.1196289.1123047-.2021484,1.0107422-.9433594,1.7856445-2.0700684,2.324707-3.3803711Zm.8198242-8.2993164l-2.875.0449219c-.1196289,0-.190918-.0148926-.2133789-.0449219-.0224609-.0297852-.0336914-.097168-.0336914-.2021484v-1.4824219c0-.1196289.0151367-.190918.0449219-.2133789s.097168-.0336914.2021484-.0336914l2.875.0449219h2.6054688c-.2172852-.598877-.456543-1.1567383-.71875-1.6733398l-3.0996094.0449219c-.1347656,0-.2172852-.0185547-.2470703-.0561523-.0224609-.0297852-.0336914-.1010742-.0336914-.2133789v-1.3813477c0-.1271973.0185393-.2021484.0561523-.2246094.0297852-.0224609.1049805-.0336914.2246094-.0336914l3.1220703.0449219h3.7734375v-.1572266c0-.6811523-.0522461-1.2802734-.1572266-1.796875.8085938,0,1.6582031.0375977,2.5493164.1123047.2319336.0224609.3481445.0974121.3481445.2246094,0,.0825195-.0449219.2285156-.1347656.4379883-.0673828.1872559-.1010742.527832-.1010742,1.0219727v.1572266h4.0766602l3.1220703-.0449219c.1274414,0,.2021484.0151367.2246094.0449219.0224609.0300293.0336914.1010742.0336914.2133789v1.3813477c0,.1274414-.0151367.2060547-.0449219.2358398-.0297852.0224609-.1010742.0336914-.2133789.0336914l-3.1445312-.0449219h-.3032227c-.1123047.1948242-.1796875.3256836-.2021484.3930664-.0224609.0449219-.1083984.2509766-.2583008.6176758-.1123047.2695312-.2094727.4904785-.2919922.6625977h2.8525391l2.875-.0449219c.1274414,0,.2060547.0151367.2358398.0449219.0224609.0300293.0336914.0974121.0336914.2021484v1.4824219c0,.119873-.0151367.190918-.0449219.2133789s-.1049805.0336914-.2246094.0336914l-2.875-.0449219h-14.0380859Zm10.8374023.9882812l3.1782227-.0449219c.1196289,0,.190918.0151367.2133789.0449219.0224609.0300293.0336914.1010742.0336914.2133789l-.0449219,1.8305664v2.3696289l.0449219,1.8305664c0,.119873-.0131836.1928711-.0395508.2189941-.0258789.0263672-.0952148.0393066-.2075195.0393066l-3.1782227-.0449219h-7.6367188l-3.1782227.0449219c-.1196289,0-.190918-.0148926-.2133789-.0449219-.0224609-.0297852-.0336914-.1010742-.0336914-.2133789l.0449219-1.8305664v-2.3696289l-.0449219-1.8305664c0-.1271973.0151367-.2021484.0449219-.2246094s.097168-.0336914.2021484-.0336914l3.1782227.0449219h7.6367188Zm-.2358398,8.4453125c.4716797.2770996,1.0332031.5053711,1.6845703.6850586.2470703.0673828.3969727.1235352.4492188.168457.0600586.0449219.0898438.1274414.0898438.2470703,0,.0524902-.0112305.1760254-.0336914.3706055-.1948242,1.1455078-.5839844,1.871582-1.1679688,2.1787109-.7260742.3518066-2.253418.527832-4.5820312.527832-2.059082,0-3.3691406-.1311035-3.9306641-.3930664-.3071289-.1647949-.5239258-.3781738-.6513672-.6401367-.1347656-.284668-.2021484-.6962891-.2021484-1.2353516v-1.4487305c0-.71875-.0375977-1.3549805-.1123047-1.9091797.980957.0300293,1.7592773.0825195,2.3359375.1572266.2768555.0449219.4155273.1123047.4155273.2021484,0,.119873-.0375977.2358398-.1123047.3481445-.0898438.1499023-.1347656.4716797-.1347656.9658203v.8759766c0,.4643555.1235352.7487793.3706055.8535156.284668.1049805.980957.1572266,2.0888672.1572266,1.5649414,0,2.5307617-.0935059,2.8974609-.2807617.3745117-.1721191.5727539-.7822266.5952148-1.8305664Zm1.2241211-6.9067383h-9.6357422v.9882812h9.6357422v-.9882812Zm0,3.402832v-1.0332031h-9.6357422v1.0332031h9.6357422Zm-2.4145508-9.4897461h-5.0874023c.2172852.4492188.434082,1.0070801.6513672,1.6733398h3.7958984c.284668-.6289062.4980469-1.1865234.6401367-1.6733398Zm-2.0214844,11.2641602c.6889648.4716797,1.3476562,1.078125,1.9765625,1.8193359.0600586.0825195.0898438.142334.0898438.1796875,0,.0524902-.0600586.1311035-.1796875.2358398l-1.0444336.8647461c-.1274414.1123047-.2246094.168457-.2919922.168457s-.1459961-.0522461-.2358398-.1572266c-.4492188-.6064453-1.0556641-1.2539062-1.8193359-1.9428711-.1123047-.0673828-.168457-.1159668-.168457-.1459961,0-.0224609.0825195-.1010742.2470703-.2358398l.8984375-.7412109c.1347656-.097168.2319336-.1459961.2919922-.1459961s.1386719.0336914.2358398.1010742Zm6.9179688.2807617c1.1381836.9882812,2.1635742,2.1376953,3.0771484,3.4477539.0600586.0825195.0898438.1499023.0898438.2021484,0,.0600586-.0673828.1386719-.2021484.2358398l-1.4262695.9433594c-.1347656.0898438-.2319336.1347656-.2919922.1347656-.0522461,0-.1162109-.0600586-.190918-.1796875-.6513672-1.2277832-1.5908203-2.4555664-2.8188477-3.6835938-.0825195-.0822754-.1235352-.1384277-.1235352-.168457,0-.0297852.0786133-.097168.2358398-.2021484l1.1679688-.7524414c.1196289-.074707.2060547-.1123047.2583008-.1123047.0449219,0,.1196289.0449219.2246094.1347656Z"/>
        <path class="cls-4" d="m316.5419922,1.2915039c1.2280273.1499023,2.1264648.3256836,2.6953125.527832.2768555.0974121.4155273.2358398.4155273.4155273,0,.1499023-.0375977.2734375-.1123047.3706055-.1499023.1796875-.2583008.4567871-.3256836.8310547-.0224609.119873-.0561523.3256836-.1010742.6176758-.0297852.2172852-.0600586.3930664-.0898438.527832,2.0214844-.1945801,4.0166016-.5166016,5.9858398-.9658203.0600586-.0148926.1123047-.0224609.1572266-.0224609.1196289,0,.1982422.0861816.2358398.2583008.1499023.644043.2246094,1.1643066.2246094,1.5610352,0,.2470703-.1611328.4006348-.4829102.4604492-2.2387695.4567871-4.4135742.7788086-6.5249023.9658203-.097168.9433594-.1533203,1.7182617-.168457,2.324707.9282227-.3144531,2.1040039-.4829102,3.5263672-.5053711.2397461-.6513672.3666992-1.2128906.3818359-1.6845703.9956055.3071289,1.6772461.5915527,2.0439453.8535156.2768555.1796875.4155273.3481445.4155273.5053711,0,.0898438-.0449219.1835938-.1347656.2807617-.0673828.0600586-.1645508.2097168-.2919922.4492188,1.6020508.4267578,2.8076172,1.1679688,3.6162109,2.2236328.7260742.9360352,1.0893555,2.0664062,1.0893555,3.3916016,0,1.699707-.6850586,3.1445312-2.0551758,4.3349609-1.0932617.9509277-2.5380859,1.6657715-4.3349609,2.1450195-.1572266.0449219-.284668.0673828-.3818359.0673828-.2544107,0-.4643555-.1647949-.6289062-.4941406-.1645508-.3295898-.6176758-.8046875-1.3588867-1.4262695.8535156-.1796875,1.7143555-.4492188,2.5830078-.8085938.71875-.2993164,1.2802734-.5913086,1.6845703-.8759766,1.2280273-.8908691,1.8417969-2.0400391,1.8417969-3.4477539,0-.9282227-.3183594-1.703125-.9545898-2.324707-.4941406-.4790039-1.1230469-.815918-1.8867188-1.0107422-1.2202148,2.3210449-2.6689453,4.3276367-4.3461914,6.0195312.0449219.1647949.1796875.5129395.4042969,1.0444336.0449219.0898438.0673828.168457.0673828.2358398,0,.1049805-.0825195.2172852-.2470703.3369141-.456543.3369141-.9169922.6027832-1.3813477.7973633-.097168.0524902-.1723633.0786133-.2246094.0786133-.074707,0-.1533203-.0634766-.2358398-.190918-.1420898-.2470703-.2695312-.5463867-.3818359-.8984375-1.6020508,1.1081543-2.9384766,1.6621094-4.0092773,1.6621094-.8383789,0-1.4863281-.2844238-1.9428711-.8535156-.4042969-.5014648-.6064453-1.1679688-.6064453-1.9990234,0-1.4973145.6103516-2.9648438,1.8305664-4.4023438.980957-1.1455078,2.1635582-2.0625,3.5488281-2.7514648.0224609-.8234863.0600586-1.7817383.1123047-2.875-.5615234.0224609-1.0742188.0336914-1.5385742.0336914l-.8198242-.0112305c-.6962891,0-1.1342773-.0148926-1.3139648-.0449219-.2543945-.0224609-.3930664-.1982422-.4155273-.527832-.0297852-.2021484-.0522461-.4941406-.0673828-.8759766-.0224609-.4492188-.0375977-.7412109-.0449219-.8759766.7036133.0825195,1.512207.1235352,2.4257812.1235352.1499023,0,.8271484-.0073242,2.0327148-.0224609.1274414-1.1154785.190918-1.9541016.190918-2.515625,0-.3518066-.0336914-.6962891-.1010742-1.0332031Zm-.4604492,10.8823242c-.9658203.6889648-1.7143555,1.4450684-2.2460938,2.2685547-.4790039.7487793-.71875,1.4638672-.71875,2.1450195,0,.284668.0859375.5092773.2583008.6738281.1347656.1347656.3032227.2021484.5053711.2021484.644043,0,1.53125-.4453125,2.6616211-1.3364258-.2695312-1.6320801-.4228516-2.949707-.4604492-3.953125Zm2.5380859,2.4145508c1.0556641-1.2128906,1.9428711-2.5380859,2.6616211-3.9755859-.9658203.0224609-1.9467773.1984863-2.9423828.527832.0224609,1.2802734.1162109,2.4296875.2807617,3.4477539Z"/>
        <path class="cls-4" d="m334.7915039,1.5947266c1.1303711.2246094,1.965332.4604492,2.5043945.7075195.2919922.1123047.4379883.2658691.4379883.4604492,0,.119873-.0522461.2434082-.1572266.3706055-.1420898.1647949-.2807617.5241699-.4155273,1.078125-.2094727,1.0107422-.4228516,2.4746094-.6401367,4.3911133-.0600586,1.0107422-.0898438,1.6621094-.0898438,1.9541016,0,.2021484.0039062.3969727.0112305.5839844.5541992-.9882812,1.0893555-1.9726562,1.605957-2.9536133.1723633.5615234.4116211,1.0595703.71875,1.4936523.0898438.1123047.1347656.2358398.1347656.3706055,0,.1572266-.074707.3481445-.2246094.5727539-.71875,1.3701172-1.171875,2.3510742-1.3588867,2.9423828-.0522461.1572266-.09375.3894043-.1235352.6962891,0,.1948242-.097168.3144531-.2919922.359375-.284668.0749512-.8984375.168457-1.8417969.2807617-.1499023.0224609-.2583008-.0786133-.3256836-.3032227-.456543-1.2353516-.6850586-2.7888184-.6850586-4.6606445,0-.9882812.1835938-2.8974609.550293-5.7275391.1274414-1.0705566.190918-1.9428711.190918-2.6166992Zm7.355957.0449219c1.2954102.0600586,2.1713867.1499023,2.6279297.2695312.3144531.0825195.4716797.2246094.4716797.4267578,0,.0524902-.0039062.119873-.0112305.2021484-.0375977.2097168-.0561523.5615234-.0561523,1.0556641.2172852,2.8974609.3256836,4.8740234.3256836,5.9296875,0,3.519043-.5839844,6.1806641-1.7519531,7.9848633-.8984375,1.4375-2.1635742,2.6728516-3.7958984,3.7060547-.1499023.1047363-.3032227.1572266-.4604492.1572266-.1499023,0-.3105469-.0861816-.4829102-.2583008-.5766602-.501709-1.2280273-.8535156-1.9541016-1.0556641,1.8193359-1.0107422,3.1259766-2.036377,3.9194336-3.0771484.7338867-1.0031738,1.2426758-2.0776367,1.5273438-3.2231445.2695312-1.0854492.4042969-2.4594727.4042969-4.121582,0-1.9765625-.09375-3.8071289-.2807617-5.4916992-.097168-.958252-.2583008-1.7929688-.4829102-2.5043945Z"/>
        <path class="cls-4" d="m357.5668945,14.9365234c-.0600586-1.4375-.097168-2.3508301-.1123047-2.7402344-.644043.0151367-1.2241211.0224609-1.7407227.0224609-1.078125,0-2.0776367-.0410156-2.9985352-.1235352-.2246094,0-.3481445-.1271973-.3706055-.3818359-.0898438-.5090332-.1347656-1.1604004-.1347656-1.9541016,1.175293.142334,2.4106445.2133789,3.7060547.2133789.4790039,0,.9697266-.0112305,1.4711914-.0336914l-.0449219-2.6391602c-.9135742.0300293-1.6845703.0449219-2.3134766.0449219-1.1977539,0-2.2612305-.0522461-3.1894531-.1572266-.2397461,0-.3706055-.1083984-.3930833-.3256836-.0673659-.5615234-.119612-1.2502441-.1572096-2.0664062,1.3325195.1499023,3.3427734.2246094,6.0307617.2246094,0-.4416504-.0151367-1.1865234-.0449219-2.2348633-.0522461-.598877-.1459961-1.1118164-.2807617-1.5385742,1.2504883.0749512,2.2163086.2133789,2.8974609.4155273.2172852.0673828.3256836.2133789.3256836.4379883,0,.0898438-.0224609.1723633-.0673828.2470703-.2172852.4267578-.3330078.7973633-.3481445,1.1118164-.0073242.1723633-.0151367.4042969-.0224609.6962891-.0073242.3369141-.0151367.5952148-.0224609.7749023,1.7294922-.1347656,3.4067383-.3666992,5.03125-.6962891.0673828-.0148926.1235352-.0224609.168457-.0224609.1347656,0,.2094727.1010742.2246094.3032227.074707.5390625.1123047,1.0969238.1123047,1.6733398,0,.2246094-.0825195.3481445-.2470703.3706055-1.6694336.284668-3.4404297.4829102-5.3120117.5952148l.0224609,2.6054688c.6962891-.0449219,2.1972656-.2431641,4.503418-.5952148.0825195-.0224609.1459961-.0336914.190918-.0336914.1049805,0,.1645508.0712891.1796875.2133789.0449219.8759766.0673828,1.5048828.0673828,1.8867188,0,.1948242-.1162109.3032227-.3481445.3256836-1.6098633.262207-3.1108398.4455566-4.503418.550293.0673828,1.5498047.1196289,2.6318359.1572266,3.2456055,2.2163086.6140137,4.2490234,1.5385742,6.0981445,2.7739258.1347656.119873.2021484.2285156.2021484.3256836,0,.0449219-.0151367.119873-.0449219.2246094-.2319336.644043-.5688477,1.2128906-1.0107422,1.7070312-.0825195.1196289-.1796875.1796875-.2919922.1796875-.097168,0-.1835938-.0375977-.2583008-.1123047-1.3251953-1.0480957-2.8486328-1.9204102-4.5708008-2.6166992-.0151367,1.3027344-.456543,2.230957-1.3251953,2.7851562-.7412109.4716797-1.8569336.7075195-3.3466797.7075195-1.5722656,0-2.78125-.3369141-3.6274414-1.0107422-.7114258-.5688477-1.0668945-1.3027344-1.0668945-2.2011719,0-1.0180664.4755859-1.8342285,1.4262695-2.4482422.8383789-.5463867,1.8979492-.8198242,3.1782227-.8198242.7485352,0,1.4824219.0300293,2.2011719.0898438Zm.0449219,2.1787109c-.7563477-.1796875-1.4672852-.2695312-2.1337891-.2695312-1.6547852,0-2.4819336.4042969-2.4819336,1.2128906,0,.6889648.7597656,1.0332031,2.2797852,1.0332031,1.0332031,0,1.7294922-.2282715,2.0888672-.6850586.1645508-.2319336.2470703-.6625977.2470703-1.2915039Z"/>
        <path class="cls-4" d="m379.309082,4.9301758c-.0073242-.2246094-.0151367-.576416-.0224609-1.0556641-.0073242-.359375-.0151367-.6437988-.0224609-.8535156-.0449219-.576416-.1386719-1.1379395-.2807617-1.6845703,1.1230469.0749512,2.0214844.1835938,2.6953125.3256836.4267578.0749512.6401367.2209473.6401367.4379883,0,.119873-.0673828.2958984-.2021484.527832-.0825195.1572266-.1459961.3781738-.190918.6625977-.0073242.0974121-.0224609.5878906-.0449219,1.4711914,2.059082-.074707,4.4135742-.1123047,7.0639648-.1123047.1420898,0,.2319336.0224609.2695312.0673828s.0600586.1386719.0673828.2807617c.0151367.2995605.0224609.5915527.0224609.8759766,0,.284668-.0073242.5766602-.0224609.8759766,0,.2021484-.097168.3032227-.2919922.3032227h-.0898438c-1.3925781-.0449219-2.8710938-.0673828-4.4360352-.0673828-.9433594,0-1.8041992.0039062-2.5830078.0112305,0,1.916748.0073242,3.3430176.0224609,4.2788086.2319336.621582.3481445,1.3813477.3481445,2.2797852,0,3.159668-1.3662109,5.6340332-4.0991211,7.4233398-.4492188.2919922-.7485352.4379883-.8984375.4379883-.1645508,0-.3930664-.1162109-.6850586-.3481445-.4868164-.4042969-1.0708008-.7075195-1.7519531-.909668,1.3999023-.6213379,2.5229492-1.4335938,3.3691406-2.4370117.7036133-.8234863,1.152832-1.6994629,1.3476562-2.6279297-.4194336.6140137-1.1381836.9208984-2.15625.9208984-1.003418,0-1.8007812-.3518066-2.3920898-1.0556641-.53908-.6362305-.8085938-1.4599609-.8085938-2.4707031,0-1.1079102.3891602-1.987793,1.1679688-2.6391602.644043-.5390625,1.4111328-.8085938,2.3022461-.8085938.815918,0,1.3999023.1535645,1.7519531.4604492l-.0224609-2.347168c-3.3242188.1872559-5.9785156.4194336-7.9624023.6962891-.1796875.0224609-.4082031.0786133-.6850586.168457-.2021484.0673828-.3330078.1010742-.3930664.1010742-.1948242,0-.3256836-.1083984-.3930664-.3256836-.1572266-.3967285-.3481445-1.1679688-.5727539-2.3134766.2319336.0224609.4755859.0336914.7299805.0336914.2319336,0,.9248047-.0410156,2.0776367-.1235352,1.2353516-.1047363,3.6123047-.2583008,7.1313477-.4604492Zm-1.4711914,5.9072266c-.434082,0-.7973633.1386719-1.0893555.4155273-.2919922.2770996-.4379883.6364746-.4379883,1.078125,0,.5241699.1611328.9321289.4829102,1.2241211.262207.2321777.5913086.3481445.9882812.3481445.4868164,0,.8759766-.1496582,1.1679688-.4492188.2695312-.2844238.4042969-.6662598.4042969-1.1455078,0-.4941406-.1572266-.8720703-.4716797-1.1342773-.262207-.2246094-.6103516-.3369141-1.0444336-.3369141Z"/>
        <path class="cls-4" d="m392.1342773,15.644043c.9882812,0,1.8119937.3632812,2.4707031,1.0893555.5766602.6289062.8647461,1.3701172.8647461,2.2236328,0,.9882812-.3666992,1.8081055-1.1005859,2.4594727-.6362305.5688477-1.3813477.8535156-2.2348633.8535156-.9882812,0-1.8120117-.3632812-2.4707031-1.0893555-.5766602-.6289062-.8647461-1.3701172-.8647461-2.2236328,0-.9882812.3666992-1.8081055,1.1005859-2.4594727.6362305-.5688477,1.3813477-.8535156,2.2348633-.8535156Zm0,1.4038086c-.5766602,0-1.0517578.2060547-1.4262695.6176758-.3217773.359375-.4829102.7900391-.4829102,1.2915039,0,.5766602.2060547,1.0517578.6176758,1.4262695.359375.3217773.7900391.4829102,1.2915039.4829102.5766602,0,1.0517578-.2060547,1.4262695-.6176758.3217773-.359375.4829102-.7897949.4829102-1.2915039,0-.576416-.2060547-1.0517578-.6176758-1.4262695-.359375-.3217773-.7900391-.4829102-1.2915039-.4829102Z"/>
        <path class="cls-4" d="m.527832,45.7607422c1.6621094-1.3100586,2.9946289-2.9946289,3.9980469-5.0537109.1796875-.3518066.3183594-.7597656.4155273-1.2241211.6889648.1123047,1.3852539.2807617,2.0888672.5053711.2172852.0749512.3256836.1835938.3256836.3256836,0,.0898438-.0522461.190918-.1572266.3032227-.2172852.2097168-.3481445.3781738-.3930664.5053711l-.3481445.7075195h10.2871094l3.1445312-.0449219c.1347656,0,.2172852.0151367.2470703.0449219.0224609.0300293.0336914.0974121.0336914.2021484v1.6845703c0,.119873-.0185547.190918-.0561523.2133789-.0297852.0224609-.1049805.0336914-.2246094.0336914l-3.1445312-.0449219H5.2446289c-.7260742,1.078125-1.5610352,2.0664062-2.5043945,2.9648438-.262207.262207-.4379883.3930664-.527832.3930664-.1196289,0-.2919922-.1533203-.5166016-.4604492-.3144531-.4191895-.7036133-.7709961-1.1679688-1.0556641Zm4.8515625,5.8959961c1.2353516.8310547,2.2646484,1.557373,3.0883789,2.1787109.4418945-.5090332.8833008-1.0668945,1.3251953-1.6733398.2919922-.4416504.5239258-.8720703.6962891-1.2915039.8012695.2695312,1.4599609.5839844,1.9765625.9433594.2021484.1572266.3032227.2958984.3032227.4155273,0,.119873-.1010742.2434082-.3032227.3706055-.1347656.0749512-.3408203.2958984-.6176758.6625977-.5092773.7263184-1.0405273,1.3852539-1.5947266,1.9765625,1.003418.8237305,2.0400391,1.722168,3.1108398,2.6953125.1196289.0974121.1796875.1872559.1796875.2695312,0,.0825195-.0449219.168457-.1347656.2583008l-1.2915039,1.3364258c-.1347656.1347656-.2397461.2021484-.3144531.2021484-.0673828,0-.1459961-.0449219-.2358398-.1347656-.9584961-1.0480957-1.9541016-2.0439453-2.9873047-2.9873047-1.6694336,1.4226074-3.5639648,2.5717773-5.6826172,3.4477539-.2919922.1196289-.4829102.1796875-.5727539.1796875-.1347656,0-.3032227-.1760254-.5053711-.527832-.3295898-.5317383-.7226562-.9770508-1.1791992-1.3364258,2.5605469-.815918,4.6308594-1.894043,6.2104492-3.234375-1.0180664-.8310547-2.0288086-1.5834961-3.0322266-2.2573242-.1049805-.0673828-.1572266-.1235352-.1572266-.168457s.0600586-.1271973.1796875-.2470703l1.078125-.9882812c.1347656-.1196289.2285156-.1796875.2807617-.1796875.0449219,0,.1049805.0300293.1796875.0898438Zm9.8266602-1.1118164H5.1772461l-3.1557617.0449219c-.1347656,0-.2133789-.0148926-.2358398-.0449219-.0224609-.0297852-.0336914-.097168-.0336914-.2021484v-1.7294922c0-.1196289.0151367-.190918.0449219-.2133789s.1049805-.0336914.2246094-.0336914l3.1557617.0449219h8.9619141l3.1782227-.0449219c.1870117,0,.2807617.09375.2807617.2807617-.0375977.5615234-.0561523,1.1230469-.0561523,1.6845703,0,.4343262.0112305.8574219.0336914,1.269043.0522461,1.9243164.1982422,3.4104004.4379883,4.4584961.1870117.8310547.3144531,1.3291016.3818359,1.4936523.1123047.262207.265625.3930664.4604492.3930664.284668,0,.5014648-.9807129.6513672-2.9423828.3217773.3969727.8496094.7263184,1.5834961.9882812.2768555.1049805.4155273.2470703.4155273.4267578,0,.0825195-.0224609.2695312-.0673828.5615234-.2094727,1.4301758-.5092773,2.4106445-.8984375,2.9423828-.3520508.4790039-.8574219.71875-1.5161133.71875-1.4301758,0-2.4970703-1.2128906-3.2006836-3.6386719-.4116211-1.5795898-.6176758-3.7321777-.6176758-6.4575195Zm-6.9067383-3.425293l-3.0322266.0449219c-.1196289,0-.1948242-.0148926-.2246094-.0449219-.0224609-.0373535-.0336914-.1159668-.0336914-.2358398v-1.5385742c0-.1196289.0185547-.190918.0561523-.2133789.0224609-.0224609.0898438-.0336914.2021484-.0336914l3.0322266.0449219h6.4912109l3.0546875-.0449219c.1196289,0,.1948242.0151367.2246094.0449219.0224609.0300293.0336914.0974121.0336914.2021484v1.5385742c0,.1347656-.0185547.2172852-.0561523.2470703-.0224609.0224609-.0898438.0336914-.2021484.0336914l-3.0546875-.0449219h-6.4912109Z"/>
        <path class="cls-4" d="m25.9760742,41.4707031c1.0708008.2546387,1.894043.5354004,2.4707031.8422852.3520508.1872559.527832.3706055.527832.550293,0,.1123047-.1162109.3444824-.3481445.6962891-.1948242.359375-.3779297.9023438-.550293,1.628418-.644043,2.8525391-.9658203,5.3308105-.9658203,7.4345703,0,.980957.0449219,1.8754883.1347656,2.684082,1.0405273-2.2758789,1.5610352-3.4177246,1.5610352-3.425293.0825195.2470703.3520508.7299805.8085938,1.4487305.1049805.1796875.1572266.2958984.1572266.3481445,0,.119873-.0375977.2434082-.1123047.3706055-.644043,1.4450684-1.0820312,2.6018066-1.3139648,3.4702148-.0449219.142334-.0673828.3818359-.0673828.71875l.0449219.6401367c0,.1572266-.1010742.2583008-.3032227.3032227-.6513672.1796875-1.2763672.3032227-1.8754883.3706055h-.0449219c-.1274414,0-.2133789-.0861816-.2583008-.2583008-.3369141-.8383789-.6064453-1.9726562-.8085938-3.402832-.1645508-1.1977539-.2470703-2.347168-.2470703-3.4477539,0-2.1113281.262207-4.6269531.7861328-7.546875.2695312-1.5722656.4042969-2.7138672.4042969-3.425293Zm5.3007812,11.859375l2.0888672-.1796875h.0449219c.1196289,0,.1796875.1162109.1796875.3481445.074707.8310547.4453125,1.411377,1.1118164,1.7407227.5766602.2770996,1.4560547.4155273,2.6391602.4155273,1.2504883,0,2.7138672-.097168,4.3911133-.2919922.0522461-.0073242.0859375-.0112305.1010742-.0112305.1196289,0,.1948242.1010742.2246094.3032227.0898438.644043.1347656,1.3027344.1347656,1.9765625,0,.1499023-.0185547.2397461-.0561523.2695312-.0449219.0300293-.1572266.0524902-.3369141.0673828-1.4301758.1723633-2.6801758.2583008-3.7509766.2583008-1.7817383,0-3.140625-.168457-4.0766602-.5053711-.793457-.2919922-1.4262695-.7597656-1.8979492-1.4038086-.5317383-.6811523-.7973633-1.677002-.7973633-2.9873047Zm.7299805-6.5249023c.0224609-1.317627.0449219-2.0700684.0673828-2.2573242.0224609-.2246094.1308594-.3554688.3256836-.3930664,1.4824219-.2768555,3.1484375-.4155273,4.9975586-.4155273,1.3027344,0,2.4370117.0449219,3.402832.1347656.2470703.0151367.4003906.0449219.4604492.0898438.0449219.0300293.0673828.1010742.0673828.2133789,0,.8759766-.0151367,1.5273438-.0449219,1.9541016-.0224609.1872559-.1049805.2807617-.2470703.2807617h-.0561523c-1.3774414-.097168-2.6279297-.1459961-3.7509766-.1459961-1.512207,0-3.2529297.1796875-5.222168.5390625Z"/>
        <path class="cls-4" d="m52.5585938,44.2446289c.7788086-.074707,1.7294922-.239502,2.8525391-.4941406.074707-.0297852.1308594-.0449219.168457-.0449219.0898438,0,.1459961.0749512.168457.2246094.1196289.5615234.190918,1.1831055.2133789,1.8642578,0,.1572266-.09375.2470703-.2807617.2695312-.793457.1647949-2.059082.3706055-3.7958984.6176758-1.5947266,4.2226562-3.0883789,7.5131836-4.480957,9.871582-.0898438.1499023-.1757812.2246094-.2583008.2246094-.0522461,0-.1420898-.0373535-.2695312-.1123047-.644043-.3891602-1.175293-.7822266-1.5947266-1.1791992-.1049805-.0822754-.1572266-.1645508-.1572266-.2470703,0-.0898438.0375977-.1833496.1123047-.2807617,1.699707-2.8076172,3.0283203-5.4804688,3.9868164-8.0185547-.5839844.0300293-1.3515625.0449219-2.3022461.0449219-.4643555,0-.887207-.0073242-1.269043-.0224609-.1723633,0-.2807617-.1235352-.3256836-.3706055-.0898438-.3666992-.1645508-1.0180664-.2246094-1.9541016.8310547.0600586,1.5424805.0898438,2.1337891.0898438.8911133,0,1.7744141-.0373535,2.6503906-.1123047.2021484-.7111816.4003906-1.5683594.5952148-2.5717773.097168-.5390625.1459961-1.1604004.1459961-1.8642578,1.3178711.1796875,2.2124023.3408203,2.684082.4829102.2470703.0449219.3706055.1572266.3706055.3369141,0,.1572266-.0673828.3032227-.2021484.4379883-.1274414.1723633-.2509766.4567871-.3706055.8535156-.037607.1274414-.1308594.4604492-.2807617.9995117-.1049805.3894043-.1948242.7075195-.2695312.9545898Zm3.6948242,9.6132812c-.1049805-1.1303711-.1723633-2.4482422-.2021484-3.953125-.0224609-.6213379-.0859375-1.1640625-.190918-1.628418,1.0405273.1049805,1.8754883.2509766,2.5043945.4379883.2172852.0449219.3256836.1647949.3256836.359375,0,.0524902-.0449219.2133789-.1347656.4829102-.0673828.2097168-.1010742.4379883-.1010742.6850586,0,.0524902.0039062.1386719.0112305.2583008,0,1.1755371.0825195,2.4782715.2470703,3.9082031,1.7446289.7038574,3.1259766,1.4189453,4.144043,2.1450195.1347656.0974121.2021484.1872559.2021484.2695312,0,.0524902-.0224609.1235352-.0673828.2133789-.3442383.7038574-.6962891,1.3251953-1.0556641,1.8642578-.0673828.1047363-.1386719.1572266-.2133789.1572266-.0600586,0-.1347656-.0449219-.2246094-.1347656-.6889648-.598877-1.6245117-1.2426758-2.8076172-1.9316406,0,1.1904297-.434082,2.0737305-1.3027344,2.6503906-.7260742.4716797-1.7143555.7075195-2.9648438.7075195-1.362793,0-2.4331055-.3369141-3.2119141-1.0107422-.6811523-.5839844-1.0219727-1.3364258-1.0219727-2.2573242,0-1.078125.434082-1.9240723,1.3027344-2.5380859.7636719-.5463867,1.7480469-.8198242,2.9536133-.8198242.621582,0,1.2241211.0449219,1.8081055.1347656Zm.0449219,2.1899414c-.6811523-.2319336-1.3066406-.3481445-1.8754883-.3481445-.644043,0-1.152832.1274414-1.5273438.3818359-.3442383.2397461-.5166016.5578613-.5166016.9545898,0,.7338867.6513672,1.1005859,1.9541016,1.1005859.6513672,0,1.1606445-.1721191,1.5273438-.5166016.3071289-.2919922.4604492-.6625977.4604492-1.1118164,0-.217041-.0073242-.3706055-.0224609-.4604492Zm1.3588867-9.6132812c.6289062-1.1154785.9731445-1.7143555,1.0332031-1.796875.0898438-.1420898.1835938-.2133789.2807617-.2133789.0522461,0,.1196289.0151367.2021484.0449219,1.3774414.3745117,2.8823242,1.0969238,4.5146484,2.1674805.1347656.0898438.2021484.1723633.2021484.2470703,0,.0825195-.0297852.1760254-.0898438.2807617-.2397461.5241699-.5615234,1.0932617-.9658203,1.7070312-.0673828.1049805-.1386719.1572266-.2133789.1572266-.0522461,0-.1196289-.0297852-.2021484-.0898438-1.796875-1.2202148-3.3842773-2.0551758-4.7617188-2.5043945Z"/>
        <path class="cls-4" d="m75.7270508,43.7392578c-1.4375.262207-2.9199219.5541992-4.4472656.8759766-.3969727.0898438-.71875.1835938-.9658203.2807617-.1870117.0749512-.3408203.1123047-.4604492.1123047-.2246094,0-.3930664-.1308594-.5053711-.3930664-.2397461-.4716797-.5053711-1.2988281-.7973633-2.4819336.3891602.0524902.8046875.0786133,1.246582.0786133.2993164,0,.5952148-.0112305.887207-.0336914,1.5795898-.1572266,3.3203125-.4191895,5.222168-.7861328.6362305-.1271973,1.0556641-.2431641,1.2578125-.3481445.2094727-.1196289.3554688-.1796875.4379883-.1796875.1796875,0,.3554688.0600586.527832.1796875.6137695.4716797,1.1269531.9621582,1.5385742,1.4711914.1723633.1948242.2583008.3818359.2583008.5615234,0,.2470703-.1308594.4306641-.3930664.550293-.262207.1274414-.5991211.3706055-1.0107422.7299805-.4716797.4643555-1.34375,1.3364258-2.6166992,2.6166992-.9506836.9509277-1.7333984,1.722168-2.347168,2.3134766l.0224609.0673828c1.2128906-.6887207,2.4331055-1.0332031,3.6611328-1.0332031,1.8041992,0,3.2416992.5727539,4.3125,1.7182617.9282227,1.003418,1.3925781,2.2724609,1.3925781,3.8071289,0,2.059082-.8198242,3.6611328-2.4594727,4.8066406-1.4223633.9956055-3.2792969,1.4936523-5.5703125,1.4936523-1.5571289,0-2.7475586-.3369141-3.5712891-1.0107422-.71875-.5839844-1.078125-1.3737793-1.078125-2.3696289,0-.8310547.3554688-1.5234375,1.0668945-2.0776367.621582-.4865723,1.3476562-.7299805,2.1787109-.7299805,1.1679688,0,2.1337891.3220215,2.8974609.9658203.6889648.5766602,1.1640625,1.3740234,1.4262695,2.3920898.8686523-.3967285,1.4863281-.8908691,1.8530273-1.4824219.3295898-.5390625.4941406-1.2128906.4941406-2.0214844,0-1.1154785-.3779297-1.9951172-1.1342773-2.6391602-.6513672-.5539551-1.4785156-.8310547-2.4819336-.8310547-2.0141602,0-3.9755859.8125-5.8847656,2.4370117-.2919922.2695312-.9584961.9208984-1.9990234,1.9541016-.1723633.1723633-.3032227.2583008-.3930664.2583008s-.2060547-.0673828-.3481445-.2021484c-.4194336-.3666992-.8686523-.8684082-1.3476562-1.5048828-.0522461-.0598145-.0786133-.1235352-.0786133-.190918,0-.097168.0634766-.2094727.190918-.3369141,1.7143555-1.3850098,3.5302734-3.0771484,5.4467773-5.0761719,1.5649414-1.6171875,2.7553711-2.9311523,3.5712891-3.9418945Zm-.168457,14.1503906c-.3071289-1.317627-.9584961-1.9765625-1.9541016-1.9765625-.3442383,0-.621582.0974121-.8310547.2919922-.1796875.1572266-.2695312.3520508-.2695312.5839844,0,.7937012.6665039,1.1904297,1.9990234,1.1904297.3969727,0,.7485352-.0297852,1.0556641-.0898438Z"/>
        <path class="cls-3" d="m85.3740234,58.6420898c1.2729492-.9282227,2.2685547-1.8603516,2.9873047-2.7963867-.6811523-.9956055-1.2802734-2.1711426-1.796875-3.5263672-.0673828-.1645508-.1010742-.2768555-.1010742-.3369141,0-.0822754.0825195-.168457.2470703-.2583008l1.1230469-.5952148c.1347656-.074707.2319336-.1123047.2919922-.1123047.0825195,0,.1757812.1274414.2807617.3818359.3071289.9658203.6777344,1.8193359,1.1118164,2.5605469.5688477-1.2128906.9658203-2.6953125,1.1904297-4.4472656h-1.9765625l-.3706055.5615234c-.0898438.1347656-.1796875.2021484-.2695312.2021484-.1123047,0-.434082-.1235352-.9658203-.3706055-.6137695-.2844238-.9208984-.4677734-.9208984-.550293,0-.0673828.0449219-.1608887.1347656-.2807617,1.3251953-1.8491211,2.4970703-3.8557129,3.5151367-6.0195312h-1.5161133l-2.0888672.0449219c-.1196289,0-.1948242-.0148926-.2246094-.0449219-.0224609-.0297852-.0336914-.1010742-.0336914-.2133789v-1.6958008c0-.1347656.0185547-.217041.0561523-.2470703.0224609-.0224609.0898438-.0336914.2021484-.0336914l2.0888672.0449219h2.5043945c.2172852,0,.3857422-.0148926.5053711-.0449219l.2807617-.0673828c.1499023,0,.4042969.2246094.7636719.6738281.3969727.5166016.5952148.8461914.5952148.9882812,0,.1274414-.0786133.2546387-.2358398.3818359-.1274414.0749512-.3330078.359375-.6176758.8535156-1.1606445,2.1188965-1.8569336,3.376709-2.0888672,3.7734375h1.1005859c.2397461,0,.4155273-.0373535.527832-.1123047.1572266-.074707.2583008-.1123047.3032227-.1123047.1645508,0,.4418945.2209473.8310547.6625977.3666992.3894043.550293.6665039.550293.8310547,0,.1347656-.0859375.2883301-.2583008.4604492-.1049805.119873-.1948242.3894043-.2695312.8085938-.3295898,2.3510742-.9282227,4.3200684-1.796875,5.9072266l.1123047.0898438c1.5273438,1.2878418,3.8969727,1.9316406,7.1088867,1.9316406,3.331543,0,6.2441406-.1459961,8.7373047-.4379883-.3442383.5690918-.5576172,1.1306152-.6401367,1.6845703-.0825195.3967285-.168457.625-.2583008.6850586-.074707.0522461-.2807617.0822754-.6176758.0898438-2.1860352.1572266-4.6005859.2358398-7.2436523.2358398-3.6313477,0-6.2553711-.7075195-7.8725586-2.1225586-.2695312-.2319336-.4228516-.3706055-.4604492-.4155273-.6137695.8310547-1.4189453,1.6806641-2.4145508,2.5493164-.2543945.217041-.4228516.3256836-.5053711.3256836s-.2207031-.1535645-.4155273-.4604492c-.3071289-.5390625-.7036133-1.0146484-1.1904297-1.4262695Zm10.7924805-3.0771484l-3.0883789.0449219c-.1196289,0-.190918-.0185547-.2133789-.0561523-.0224609-.0297852-.0336914-.1010742-.0336914-.2133789v-1.4150391c0-.1271973.0151367-.2058105.0449219-.2358398.0224609-.0224609.0898438-.0336914.2021484-.0336914l3.0883789.0449219h1.8305664v-1.2915039h-1.0107422l-2.9423828.0449219c-.1196289,0-.190918-.0148926-.2133789-.0449219-.0224609-.0297852-.0336914-.097168-.0336914-.2021484v-1.3364258c0-.1271973.0151367-.2021484.0449219-.2246094s.097168-.0336914.2021484-.0336914l2.9423828.0449219h1.0107422v-1.2802734h-1.2353516l-2.5043945.0449219c-.1274414,0-.2021484-.0148926-.2246094-.0449219-.0224609-.0297852-.0336914-.1010742-.0336914-.2133789v-1.2915039c0-.1196289.0151367-.190918.0449219-.2133789s.1010742-.0336914.2133789-.0336914l2.5043945.0449219h1.2353516v-1.2802734h-2.0664062l-2.9648438.0449219c-.1196289,0-.1948242-.0148926-.2246094-.0449219-.0224609-.0373535-.0336914-.1159668-.0336914-.2358398v-1.3476562c0-.1271973.0185547-.2021484.0561523-.2246094.0224609-.0224609.0898438-.0336914.2021484-.0336914l2.9648438.0449219h2.0664062v-1.269043h-.8422852l-2.8525391.0449219c-.1274414,0-.2021484-.0148926-.2246094-.0449219-.0224609-.0297852-.0336914-.097168-.0336914-.2021484v-1.3364258c0-.1196289.0151367-.190918.0449219-.2133789s.1010742-.0336914.2133789-.0336914l2.8525391.0449219h.8422852c-.0224609-.7485352-.074707-1.3701172-.1572266-1.8642578.7861328.0224609,1.534668.0749512,2.2460938.1572266.2470703.0300293.3706055.1086426.3706055.2358398,0,.0600586-.0449219.1796875-.1347656.359375-.0898438.1647949-.1347656.5354004-.1347656,1.1118164h1.3364258l3.2568359-.0449219c.1347656,0,.2172852.0151367.2470703.0449219.0224609.0300293.0336914.1010742.0336914.2133789l-.0449219,2.2685547v.527832l1.5385742-.0449219c.1196289,0,.1948242.0151367.2246094.0449219.0224609.0300293.0336914.1010742.0336914.2133789v1.3813477c0,.119873-.0151367.190918-.0449219.2133789s-.1010742.0336914-.2133789.0336914c-.074707,0-.5878906-.0148926-1.5385742-.0449219v.550293l.0449219,2.2236328c0,.1274414-.0185547.2021484-.0561523.2246094-.0297852.0224609-.1049805.0336914-.2246094.0336914l-3.2568359-.0449219h-1.3364258v1.2802734h1.9316406l2.9199219-.0449219c.1347656,0,.2133789.0151367.2358398.0449219.0297852.0300293.0449219.1010742.0449219.2133789v1.3364258c0,.1123047-.0151367.1816406-.0449219.2077637-.0297852.0263672-.1083984.0393066-.2358398.0393066l-2.9199219-.0449219h-1.9316406v1.2915039h2.7177734l3.0996094-.0449219c.1196289,0,.1948242.0187988.2246094.0561523.0224609.0300293.0336914.1010742.0336914.2133789v1.4150391c0,.119873-.0131836.1948242-.0395508.2246094-.0258789.0300293-.0991211.0449219-.21875.0449219l-3.0996094-.0449219h-2.7177734c.0073242.4118652.0185547.8085938.0336914,1.1904297.0073242.2470703.0112305.3781738.0112305.3930664,0,.1274414-.0131836.2060547-.0390625.2358398-.0263672.0300293-.0996094.0449219-.2192383.0449219h-1.7407227c-.1347656,0-.2172852-.0185547-.2470703-.0561523-.0224609-.0297852-.0336914-.1047363-.0336914-.2246094l.0224609-1.5834961h-1.8081055Zm6.7158203-12.2412109h-2.6953125v1.269043h2.6953125v-1.269043Zm0,4.3461914v-1.2802734h-2.6953125v1.2802734h2.6953125Z"/>
        <path class="cls-3" d="m108.7670898,49.1860352c.5615234-1.8566895.8833008-3.8632812.9658203-6.0195312.0073242-.1645508.0112305-.3293457.0112305-.4941406,0-.3293457-.0185547-.6586914-.0561523-.9882812.8237305.0974121,1.4638672.1835938,1.9204102.2583008.2319336.0449219.3481445.1386719.3481445.2807617,0,.0974121-.0297852.2172852-.0898438.359375-.0673828.142334-.1123047.4042969-.1347656.7861328-.0297852.4941406-.0600586.8686523-.0898438,1.1230469h1.1005859v-1.2578125c0-1.295166-.0600586-2.4555664-.1796875-3.4814453.8686523.0300293,1.6582031.0861816,2.3696289.168457.2470703.0224609.3706055.0974121.3706055.2246094,0,.0825195-.0488281.2434082-.1459961.4829102-.0898438.2246094-.1347656,1.078125-.1347656,2.5605469v1.3027344l1.796875-.0449219c.1645508,0,.2470703.0786133.2470703.2358398v1.5610352c1.0932617-1.295166,1.9467773-2.8525391,2.5605469-4.671875.1948242-.6437988.3330078-1.2578125.4155273-1.8417969.9282227.142334,1.6469727.2734375,2.15625.3930664.262207.0749512.3930664.1835938.3930664.3256836,0,.1274414-.074707.2807617-.2246094.4604492-.1274414.142334-.284668.4941406-.4716797,1.0556641-.1645508.5092773-.4082031,1.1381836-.7299805,1.8867188h5.3569336l2.4370117-.0449219c.2172852,0,.3256836.1010742.3256836.3032227-.0297852.8237305-.0449219,1.4189453-.0449219,1.7856445-.0449219,4.934082-.2695312,8.6213379-.6738281,11.0620117-.1948242,1.3327637-.5913086,2.2871094-1.1904297,2.8637695-.5390625.5166016-1.2841797.7749023-2.2348633.7749023-.7036133,0-1.2539062-.0151367-1.6508789-.0449219-.3745117-.0224609-.5952148-.0749512-.6625977-.1572266-.0600586-.0673828-.1235352-.284668-.190918-.6513672-.1347656-.6962891-.3183594-1.269043-.550293-1.7182617.8833008.1499023,1.7783203.2246094,2.684082.2246094.5239258,0,.909668-.1870117,1.1567383-.5615234.1796875-.2844238.3183594-.7336426.4155273-1.3476562.4042969-2.9199219.6401367-6.2329102.7075195-9.9389648-.8984375,3.1821289-2.0063477,5.8249512-3.3242188,7.9287109-1.2280273,1.9616699-2.7475586,3.6425781-4.5595703,5.0424805-.2919922.217041-.4868164.3256836-.5839844.3256836-.1196289,0-.2807617-.1459961-.4829102-.4379883-.3442383-.5166016-.7636719-.935791-1.2578125-1.2578125,2.230957-1.512207,4.0390625-3.3803711,5.4243164-5.6040039,1.1157227-1.7893066,2.0366211-3.9492188,2.7626953-6.4799805h-1.5161133c-1.0483398,3.4516602-2.7441406,6.2441406-5.0874023,8.3779297-.2470703.2470703-.4306641.3706055-.550293.3706055-.1123047,0-.265625-.1308594-.4604492-.3930664-.3666992-.456543-.7973633-.8496094-1.2915039-1.1791992,2.4780273-1.8117676,4.2041016-4.2038574,5.1772461-7.1762695h-1.2128906c-.4868164.8012695-1.0556641,1.5761719-1.7070312,2.324707-.2397461.262207-.4003906.3930664-.4829102.3930664-.0898438,0-.2583008-.1235352-.5053711-.3706055-.359375-.3442383-.7973633-.6662598-1.3139648-.9658203l.6064453-.6176758c-.0825195,0-.2919922-.0073242-.6289062-.0224609-.3969727-.0073242-.7412109-.0148926-1.0332031-.0224609v3.7060547c.9135742-.4416504,1.628418-.8046875,2.1450195-1.0893555,0,.6889648.0112305,1.2055664.0336914,1.5498047.0151367.1796875.0224609.2995605.0224609.359375,0,.1723633-.0449219.3032227-.1347656.3930664-.0600586.0600586-.2133789.1535645-.4604492.2807617-.6064453.3295898-1.1416016.6027832-1.605957.8198242v3.8969727l.0449219,4.0429688c0,.1196289-.0151367.190918-.0449219.2133789s-.1010742.0336914-.2133789.0336914h-1.8642578c-.1196289,0-.190918-.0151367-.2133789-.0449219-.0224609-.0300293-.0336914-.0974121-.0336914-.2021484l.0449219-4.0205078v-2.8525391c-.1948242.0825195-.7299805.2958984-1.605957.6401367-.4042969.1872559-.6513672.3256836-.7412109.4155273-.1499023.1499023-.2807617.2246094-.3930664.2246094-.1572266,0-.2768555-.0859375-.359375-.2583008-.1870117-.4492188-.4492188-1.1904297-.7861328-2.2236328.6738281-.1420898,1.3925781-.3405762,2.15625-.5952148.3891602-.1271973.9658203-.3256836,1.7294922-.5952148v-4.6943359h-1.3364258c-.1274414,1.0332031-.2880859,1.9316406-.4829102,2.6953125-.1049805.3669434-.2021484.550293-.2919922.550293-.0600694,0-.2285156-.0786133-.5053711-.2358398-.359375-.1796875-.8125-.3330078-1.3588867-.4604492Z"/>
        <path class="cls-3" d="m131.3066406,48.7368164c1.6245117-1.9016113,2.9350586-4.3723145,3.9306641-7.4121094.1948242-.6586914.3183594-1.2089844.3706055-1.6508789.9282227.2770996,1.6323242.5354004,2.1113281.7749023.2470703.0974121.3706055.2358398.3706055.4155273,0,.1123047-.0859375.2509766-.2583008.4155273-.1196289.1049805-.2695312.4118652-.4492188.9208984-.4643555,1.3027344-.9023438,2.3996582-1.3139648,3.2905273v11.6347656l.0449219,3.4702148c0,.1196289-.0151367.1945801-.0449219.2246094-.0297852.0224609-.097168.0336914-.2021484.0336914h-1.8754883c-.1196289,0-.190918-.0151367-.2133789-.0449219-.0224609-.0300293-.0336914-.1010742-.0336914-.2133789l.0449219-3.4702148v-4.8740234c0-1.2426758.0073242-2.1936035.0224609-2.8525391-.2470703.3669434-.6289062.8647461-1.1455078,1.4936523-.1948242.2172852-.3330078.3256836-.4155273.3256836-.1196289,0-.2060547-.1308594-.2583008-.3930664-.1499023-.8535156-.3779297-1.5498047-.6850586-2.0888672Zm10.0288086-5.1772461l-3.1557617.0449219c-.1196289,0-.190918-.0148926-.2133789-.0449219-.0224609-.0297852-.0336914-.1010742-.0336914-.2133789v-1.6958008c0-.1347656.0151367-.217041.0449219-.2470703.0297852-.0224609.097168-.0336914.2021484-.0336914l3.1557617.0449219h8.1308594l3.1557617-.0449219c.1196289,0,.1948242.0187988.2246094.0561523.0224609.0300293.0336914.1049805.0336914.2246094v1.6958008c0,.1274414-.0185547.2021484-.0561523.2246094-.0224609.0224609-.0898438.0336914-.2021484.0336914l-3.1557617-.0449219h-1.4599609v3.5375977h.7075195l3.1894531-.0449219c.1274414,0,.2021484.0151367.2246094.0449219.0224609.0300293.0336914.0974121.0336914.2021484l-.0449219,3.7734375v4.0092773l.0449219,5.03125c0,.1196289-.0151367.1945801-.0449219.2246094-.0297852.0224609-.097168.0336914-.2021484.0336914h-1.796875c-.1274414,0-.2021484-.0187988-.2246094-.0561523-.0224609-.0224609-.0336914-.0898438-.0336914-.2021484v-.9658203h-9.6245117v1.0556641c0,.1196289-.0151367.1945801-.0449219.2246094-.0297852.0224609-.1010742.0336914-.2133789.0336914h-1.7744141c-.1196289,0-.190918-.0151367-.2133789-.0449219-.0224609-.0300293-.0336914-.1010742-.0336914-.2133789l.0449219-5.0537109v-3.6386719l-.0449219-4.2114258c0-.1196289.0151367-.190918.0449219-.2133789s.1010742-.0336914.2133789-.0336914l3.1445312.0449219h.5952148v-3.5375977h-.6176758Zm-1.1005859,13.5439453h1.7182617v-7.9848633h-1.7182617v7.9848633Zm3.8520508-10.0063477h1.7856445v-3.5375977h-1.7856445v3.5375977Zm0,10.0063477h1.7856445v-7.9848633h-1.7856445v7.9848633Zm5.7724609-7.9848633h-1.8530273v7.9848633h1.8530273v-7.9848633Z"/>
        <path class="cls-3" d="m176.3745117,50.690918c-.3369141.501709-.5727539,1.029541-.7075195,1.5834961-.1123047.4194336-.2397461.6289062-.3818359.6289062-.074707,0-.2470703-.0336914-.5166016-.1010742-.5390625-.1796875-.8833008-.3032227-1.0332031-.3706055l-.0449219,2.2573242v2.0214844l.0449219,3.8183594c0,.1196289-.0151367.190918-.0449219.2133789s-.1010742.0336914-.2133789.0336914h-1.8193359c-.1196289,0-.190918-.0151367-.2133789-.0449219-.0224609-.0300293-.0336914-.0974121-.0336914-.2021484v-.8984375h-5.3569336v.9208984c0,.1196289-.0151367.190918-.0449219.2133789s-.097168.0336914-.2021484.0336914h-1.7744141c-.1274414,0-.2021484-.0151367-.2246094-.0449219-.0224609-.0300293-.0336914-.0974121-.0336914-.2021484l.0449219-3.8183594v-1.7519531c0-1.0107422-.0151367-1.7443848-.0449219-2.2011719l-.6850586.2695312c-.2919922.1123047-.4755859.168457-.550293.168457-.1499023,0-.3105469-.2058105-.4829102-.6176758-.1723633-.4941406-.434082-.9394531-.7861328-1.3364258,2.2685547-.71875,4.2675781-1.7143555,5.9970703-2.9873047-.7036133-.7336426-1.3212891-1.5385742-1.8530273-2.4145508-.4868164.5766602-1.003418,1.1118164-1.5498047,1.605957-.262207.2470703-.4379883.3706055-.527832.3706055-.1123047,0-.2807617-.1459961-.5053711-.4379883-.3520508-.434082-.7036133-.7636719-1.0556641-.9882812l-1.269043-.0224609c.6137695,1.0632324,1.34375,1.9841309,2.1899414,2.7626953-.3369141.4643555-.5800781.9433594-.7299805,1.4375-.0898438.2919922-.1757812.4379883-.2583008.4379883-.0673828,0-.1835938-.1159668-.3481445-.3481445-.4492188-.6064453-.815918-1.1940918-1.1005859-1.7631836l.1572266,11.6123047c0,.1347656-.0151367.2133789-.0449219.2358398s-.1049805.0336914-.2246094.0336914h-1.8642578c-.1274414,0-.2021484-.0151367-.2246094-.0449219-.0224609-.0300293-.0336914-.1049805-.0336914-.2246094,0-.0300293.0112305-.5654297.0336914-1.605957.074707-3.0620117.1196289-5.9221191.1347656-8.5800781-.5239258,1.8269043-1.2763672,3.519043-2.2573242,5.0761719-.1499023.2470703-.265625.3706055-.3481445.3706055-.097168,0-.1796875-.1235352-.2470703-.3706055-.2021484-.6437988-.4716797-1.2241211-.8085938-1.7407227,1.5947266-2.1262207,2.7441406-4.5556641,3.4477539-7.2885742h-.4829102l-2.2573242.0449219c-.1499023,0-.2246094-.0859375-.2246094-.2583008v-1.628418c0-.1721191.074707-.2583008.2246094-.2583008l2.2573242.0449219h.6176758v-1.4487305c0-1.3625488-.0600586-2.4145508-.1796875-3.1557617.8833008.0300293,1.6508789.0861816,2.3022461.168457.262207.0224609.3930664.1049805.3930664.2470703,0,.1049805-.0449219.2658691-.1347656.4829102-.1123047.2172852-.168457.9545898-.168457,2.2124023v1.4936523l1.9316406-.0449219c.1196289,0,.1948242.0151367.2246094.0449219.0224609.0300293.0336914.1010742.0336914.2133789v1.1679688c1.4599609-1.4375,2.5869141-3.0546875,3.3803711-4.8515625.2021484-.4492188.3481445-.887207.4379883-1.3139648.8012695.119873,1.5048828.2583008,2.1113281.4155273.2470703.0673828.3706055.1572266.3706055.2695312,0,.0974121-.0600586.2060547-.1796875.3256836-.1572266.1347656-.3071289.3481445-.4492188.6401367l-.3144531.71875h4.2675781c.1870117,0,.3256836-.0224609.4155273-.0673828.097168-.0449219.1835938-.0673828.2583008-.0673828.2172852,0,.5166016.1984863.8984375.5952148.3666992.4194336.550293.71875.550293.8984375,0,.1499023-.0825195.2883301-.2470703.4155273-.1645508.1123047-.3442383.3408203-.5390625.6850586-.7563477,1.4301758-1.7070312,2.7290039-2.8525391,3.8969727,1.6621094,1.1157227,3.5786133,1.9204102,5.75,2.4145508Zm-11.3764648,1.5610352h5.7724609l2.4370117-.0224609c-1.6772461-.71875-3.0883789-1.5310059-4.2338867-2.4370117-1.1606445.9284668-2.4858398,1.748291-3.9755859,2.4594727Zm1.0556641,2.0888672v3.2905273h5.3569336v-3.2905273h-5.3569336Zm2.8525391-7.4458008c.980957-.958252,1.7480469-1.9577637,2.3022461-2.9985352h-4.4248047l-.0898438.1572266c.5541992,1.0183105,1.2915039,1.965332,2.2124023,2.8413086Z"/>
        <path class="cls-3" d="m184.4267578,53.015625c-.0898438.7114258-.1347656,1.3291016-.1347656,1.8530273,0,1.1157227.2768555,1.9018555.8310547,2.3583984.4790039.3894043,1.2202148.5839844,2.2236328.5839844,2.7924805,0,4.1889648-1.0332031,4.1889648-3.0996094,0-.7485352-.1459961-1.4223633-.4379883-2.0214844-.3144531-.6289062-.8574219-1.3513184-1.628418-2.1674805.2470703.0375977.4829102.0561523.7075195.0561523.2768555,0,.8237305-.0634766,1.6396484-.190918.0522461-.0148926.1049805-.0224609.1572266-.0224609.1274414,0,.2358398.0375977.3256836.1123047,1.3027344,1.2353516,1.9541016,2.6767578,1.9541016,4.3237305,0,1.7370605-.6889648,3.1035156-2.0664062,4.0991211-1.1904297.8535156-2.7104492,1.2802734-4.5595703,1.2802734-3.8632812,0-5.7949219-1.7294922-5.7949219-5.1884766,0-.239502.0522461-.9619141.1572266-2.1674805-1.2802734-.1945801-2.3208008-.4228516-3.1220703-.6850586-.1499023-.0449219-.2358398-.190918-.2583008-.4379883-.0449219-.4865723-.0673828-.9470215-.0673828-1.3813477,0-.2619629.0073242-.5166016.0224609-.7636719,1.2875977.4716797,2.5307617.7712402,3.7285156.8984375.1645508-1.2426758.2958984-2.3395996.3930664-3.2905273-1.5273438-.1945801-2.6318359-.407959-3.3129883-.6401367-.2470703-.0598145-.3706055-.190918-.3706055-.3930664-.0449219-1.1005859-.0673828-1.8117676-.0673828-2.1337891,1.3178711.4267578,2.706543.71875,4.1665039.8759766.1572266-1.152832.2543945-2.036377.2919922-2.6503906.0224609-.2919922.0336914-.5839844.0336914-.8759766,0-.3742676-.0185547-.7260742-.0561523-1.0556641,1.1606445.1499023,2.081543.3632812,2.7626953.6401367.3369141.119873.5053711.2958984.5053711.527832,0,.1499023-.0600586.2958984-.1796875.4379883-.1420898.142334-.2807617.4716797-.4155273.9882812-.1347656.6140137-.2583008,1.3364258-.3706055,2.1674805.2246094.0151367.4716797.0224609.7412109.0224609.621582,0,1.3178711-.0522461,2.0888672-.1572266.1572266,0,.2358398.0898438.2358398.2695312.0073242.2097168.0112305.4230957.0112305.6401367,0,.4194336-.0185547.7824707-.0561523,1.0893555,0,.2021484-.1235352.3144531-.3706055.3369141-.7260742.0825195-1.5200195.1235352-2.3808594.1235352h-.6850586c-.0673828.3894043-.2358398,1.4863281-.5053711,3.2905273.3369141.0075684.6289062.0112305.8759766.0112305.7709961,0,1.5683594-.0297852,2.3920898-.0898438.0449219-.0073242.0898438-.0112305.1347656-.0112305.1572266,0,.2358398.0898438.2358398.2695312,0,.6140137-.0375977,1.1904297-.1123047,1.7294922-.0224609.2470703-.1308594.3706055-.3256836.3706055-.6738281.0524902-1.4560547.0786133-2.347168.0786133-.3745117,0-.7675781-.0036621-1.1791992-.0112305Z"/>
        <path class="cls-4" d="m205.8095703,45.0532227c-2.1787109.3969727-3.9941406.644043-5.4467773.7412109h-.0673828c-.2172852,0-.3857422-.168457-.5053711-.5053711-.2543945-.5166016-.6474609-1.0480957-1.1791992-1.5947266,2.1264648-.097168,4.40625-.3818359,6.8393555-.8535156,1.8120117-.3891602,3.0771484-.71875,3.7958984-.9882812.8383789-.3217773,1.4975586-.6662598,1.9765625-1.0332031.9658203.71875,1.5908203,1.2578125,1.8754883,1.6171875.2021484.1948242.3032227.4082031.3032227.6401367,0,.1872559-.1982422.2958984-.5952148.3256836-.1870117.0224609-.4453125.0861816-.7749023.190918-.3295898.1049805-.5541992.168457-.6738281.190918-1.4672852.4118652-2.8564453.7524414-4.1665039,1.0219727.6738281.0749512,1.171875.1723633,1.4936523.2919922.2021484.0524902.3032227.1611328.3032227.3256836,0,.0449219-.0449219.1760254-.1347656.3930664-.0898438.1872559-.1459961.4455566-.168457.7749023-.0151367.3369141-.0224609.9433594-.0224609,1.8193359h2.8525391c.5092773,0,1.987793-.0522461,4.4360352-.1572266.1499023,0,.2358398.1235352.2583008.3706055.0151367.2321777.0224609.4941406.0224609.7861328,0,.262207-.0073242.6103516-.0224609,1.0444336-.0151367.1948242-.0375977.3127441-.0673828.3537598-.0297852.0412598-.1083984.0617676-.2358398.0617676-1.4150391-.0449219-2.9013672-.0673828-4.4584961-.0673828h-2.8300781c-.1796875,1.9091797-.5615234,3.4516602-1.1455078,4.6269531-.8608398,1.8269043-2.081543,3.2607422-3.6611328,4.3012695-.1572266.1047363-.2880859.1572266-.3930664.1572266-.1123047,0-.2470703-.0449219-.4042969-.1347656-.7563477-.3969727-1.5722656-.6889648-2.4482422-.8759766,1.1831055-.6962891,2.1152344-1.4038086,2.7963867-2.1225586.5463867-.5839844,1.0483398-1.295166,1.5048828-2.1337891.5913086-1.1455078.9321289-2.4182129,1.0219727-3.8183594h-4.0991211c-1.6845703,0-2.9047852.0300293-3.6611328.0898438-.2172852.0151367-.3632812-.1608887-.4379883-.527832-.1499023-.5839844-.2246094-1.2802734-.2246094-2.0888672,1.2729492.1049805,2.7587891.1572266,4.4584961.1572266h4.0541992c0-.6586914-.0151367-1.4335938-.0449219-2.324707-.0297852-.3967285-.0712891-.7485352-.1235352-1.0556641Z"/>
        <path class="cls-4" d="m226.9453125,50.3652344v5.8173828h2.4370117c1.362793,0,2.5981445-.0297852,3.7060547-.0898438.1948242,0,.2993164.1459961.3144531.4379883.0151367.2546387.0224609.4980469.0224609.7299805,0,.2397461-.0073242.4868164-.0224609.7412109-.0151367.2770996-.1235352.4155273-.3256836.4155273h-.0561523l-3.6162109-.0449219h-7.2211914c-.9882812,0-2.1152344.0300293-3.3803711.0898438-.2470703,0-.3930664-.1608887-.4379883-.4829102-.074707-.4116211-.1123047-1.0332031-.1123047-1.8642578.8911133.0600586,2.2011719.0898438,3.9306641.0898438h2.3022461v-5.8173828h-1.269043c-1.175293,0-2.1186523.0075684-2.8300781.0224609h-.0336914c-.1796875,0-.2880859-.1533203-.3256836-.4604492-.0375977-.2021484-.0859375-.815918-.1459961-1.8417969.6586914.0600586,1.7255859.0898438,3.2006836.0898438h5.1098633l3.0996094-.0449219h.0561523c.1796875,0,.2807617.1311035.3032227.3930664.0151367.2397461.0224609.4755859.0224609.7075195,0,.2397461-.0073242.479248-.0224609.71875-.0151367.2919922-.1347656.4379883-.359375.4379883h-.0898438l-2.9873047-.0449219h-1.269043Z"/>
        <path class="cls-4" d="m236.277832,48.152832c.4492188-.2470703,1.0556641-.550293,1.8193359-.909668.0898438-.0449219.1723633-.0673828.2470703-.0673828.1196289,0,.2358398.0749512.3481445.2246094.9208984,1.1606445,1.5795898,2.2949219,1.9765625,3.402832.0600586.2172852.0898438.333252.0898438.3481445,0,.0974121-.0898438.2060547-.2695312.3256836-.4790039.2770996-.9731445.5129395-1.4824219.7075195-.074707.0300293-.1420898.0449219-.2021484.0449219-.1572266,0-.2807617-.1196289-.3706055-.359375-.5541992-1.4150391-1.2729492-2.6540527-2.15625-3.7172852Zm11.8706055-1.7182617c1.1606445.359375,2.0175781.7263184,2.5717773,1.1005859.2021484.1499023.3032227.2807617.3032227.3930664,0,.1274414-.0825195.2658691-.2470703.4155273-.1870117.1572266-.4194336.5466309-.6962891,1.1679688-.9956055,2.3583984-2.1523438,4.3986816-3.4702148,6.1206055-1.4301758,1.8269043-3.0097656,3.3093262-4.7392578,4.4472656-.2246094.1645508-.4082031.2470703-.550293.2470703s-.265625-.0524902-.3706055-.1572266c-.5092773-.4118652-1.1606445-.7338867-1.9541016-.9658203,1.4824219-.9807129,2.6318359-1.8305664,3.4477539-2.5493164.7412109-.6586914,1.4301758-1.4038086,2.0664062-2.2348633,1.3476562-1.7519531,2.3847656-3.6010742,3.1108398-5.5478516.2768555-.8010254.453125-1.6132812.527832-2.4370117Zm-7.2436523.550293c.980957-.4641113,1.5947266-.744873,1.8417969-.8422852.0898438-.0449219.168457-.0673828.2358398-.0673828.1274414,0,.2470703.0825195.359375.2470703.7636719.9958496,1.3549805,2.1152344,1.7744141,3.3579102.0375977.1123047.0561523.2021484.0561523.2695312,0,.1274414-.097168.2434082-.2919922.3481445-.4418945.2546387-.9697266.4904785-1.5834961.7075195-.0600586.0224609-.1083984.0336914-.1459961.0336914-.1196289,0-.2246094-.1235352-.3144531-.3706055-.5615234-1.4448242-1.2055664-2.6728516-1.9316406-3.6835938Z"/>
        <path class="cls-4" d="m263.0512695,44.2895508l4.1328125-.0898438c.5092773-.0148926.8945312-.1083984,1.1567383-.2807617.074707-.0598145.1723633-.0898438.2919922-.0898438.1123047,0,.2358398.0449219.3706055.1347656.5239258.3369141,1.0444336.7524414,1.5610352,1.246582.2021484.1796875.3032227.3557129.3032227.527832,0,.1647949-.09375.3256836-.2807617.4829102-.284668.2246094-.5351562.5541992-.7524414.9882812-1.4448242,2.9350586-2.9648438,5.3046875-4.5595703,7.1088867-1.0483398,1.1831055-2.2573242,2.324707-3.6274414,3.425293-1.175293.9433594-2.2949219,1.7106934-3.3579102,2.3022461-.1196289.074707-.2431641.1123047-.3706055.1123047-.1645508,0-.3408203-.0825195-.527832-.2470703-.5766602-.4567871-1.3066406-.8085938-2.1899414-1.0556641,1.8642578-1.0332031,3.3876953-2.013916,4.5708008-2.9423828.980957-.7861328,2.0102539-1.7631836,3.0883789-2.9311523.9882812-1.0930176,1.796875-2.1337891,2.4257812-3.1220703.5839844-.9133301,1.1943359-2.0476074,1.8305664-3.402832l-5.5703125.1572266c-1.8417969,2.2836914-3.2905273,3.855957-4.3461914,4.7167969-.1645508.1723633-.3256836.2583008-.4829102.2583008-.1123047,0-.2246094-.0449219-.3369141-.1347656-.6962891-.5014648-1.4335938-.8347168-2.2124023-.9995117,2.5678711-2.0961914,4.6308594-4.3723145,6.1879883-6.828125.7036133-1.1977539,1.1567383-2.2348633,1.3588867-3.1108398,1.3027344.4643555,2.1972656.8723145,2.684082,1.2241211.1572266.1123047.2358398.2434082.2358398.3930664,0,.1572266-.0859375.2883301-.2583008.3930664-.097168.0600586-.2880859.2658691-.5727539.6176758-.1645508.262207-.4155273.644043-.7524414,1.1455078Z"/>
        <path class="cls-4" d="m280.5595703,40.7744141l-.6176758,13.6899414h-2.324707l-.6401367-13.6899414h3.5825195Zm-3.4477539,15.9248047h3.2680664v3.0996094h-3.2680664v-3.0996094Z"/>
      </g>
      <polyline class="cls-1" points="294.2587891 59.3917105 412.2587891 59.3917105 404.2587891 51.3917105"/>
      <g>
        <path class="cls-2" d="m304.2470703,44.5930176c-.9125977-1.0722656-2.2250977-1.6806641-3.6015625-1.6806641-2.7373047,0-4.7861328,2.1928711-4.7861328,4.8979492,0,3.1694336,2.6411133,4.8181152,4.8017578,4.8181152,1.0727539,0,2.4970703-.432373,3.5859375-1.6166992v.9284668c-1.0888672.9602051-2.4013672,1.3283691-3.5537109,1.3283691-3.2011719,0-5.5703125-2.5129395-5.5703125-5.4902344,0-3.0732422,2.4648438-5.5061035,5.5380859-5.5061035,2.0332031,0,3.265625,1.0883789,3.5859375,1.3925781v.9282227Z"/>
        <path class="cls-2" d="m307.2514648,42.4162598v10.0361328h2.9770508v.6401367h-3.6816406v-10.6762695h.7045898Z"/>
        <path class="cls-2" d="m312.5957031,42.4162598v10.6762695h-.7045898v-10.6762695h.7045898Z"/>
        <path class="cls-2" d="m324.0224609,44.5930176c-.9121094-1.0722656-2.2246094-1.6806641-3.6010742-1.6806641-2.7373047,0-4.7861328,2.1928711-4.7861328,4.8979492,0,3.1694336,2.6411133,4.8181152,4.8022461,4.8181152,1.0722656,0,2.496582-.432373,3.5849609-1.6166992v.9284668c-1.0883789.9602051-2.4008789,1.3283691-3.5532227,1.3283691-3.2011719,0-5.5703125-2.5129395-5.5703125-5.4902344,0-3.0732422,2.465332-5.5061035,5.5385742-5.5061035,2.0327148,0,3.2651367,1.0883789,3.5849609,1.3925781v.9282227Z"/>
        <path class="cls-2" d="m327.027832,47.4421387l5.0419922-5.0258789h.9282227l-5.1699219,5.105957,5.4741211,5.5703125h-.9604492l-5.0258789-5.0900879-.2880859.2722168v4.8178711h-.7045898v-10.6762695h.7045898v5.0258789Z"/>
      </g>
    </g>
  </g>
</svg>